<svg width="150" height="145" viewBox="0 0 150 145" fill="none" xmlns="http://www.w3.org/2000/svg">
<path d="M74.9714 117.276C99.7118 117.276 119.768 97.2958 119.768 72.6493C119.768 48.0029 99.7118 28.023 74.9714 28.023C50.2309 28.023 30.1748 48.0029 30.1748 72.6493C30.1748 97.2958 50.2309 117.276 74.9714 117.276Z" stroke="white" stroke-width="5" stroke-miterlimit="10"/>
<path d="M98.9257 9.70959C72.4696 0.124459 43.0478 6.92933 24.7073 26.7289C3.82222 49.2767 1.1527 84.5277 19.0685 111.456" stroke="white" stroke-width="5" stroke-linecap="round" stroke-linejoin="round"/>
<path d="M26.7595 135.66L42.409 120.07C40.4033 117.048 38.2513 115.078 36.7702 113.909C34.2506 111.918 31.2349 109.529 26.9629 109.415C23.9294 109.333 21.5382 110.435 20.2641 111.15C19.6503 111.672 19.0329 112.195 18.419 112.714C17.4947 113.688 16.0386 115.509 15.4461 118.125C14.272 123.323 17.4233 127.65 18.6938 129.392C21.3705 133.065 24.8144 134.846 26.7595 135.657V135.66Z" stroke="white" stroke-width="5" stroke-linecap="round" stroke-linejoin="round"/>
<path d="M30.4248 134.252L36.9309 140.73L40.5069 137.168L33.751 130.441" stroke="white" stroke-width="3" stroke-linecap="round" stroke-linejoin="round"/>
<path d="M37.0771 126.694L43.5796 133.175L47.1557 129.613L40.4033 122.882" stroke="white" stroke-width="3" stroke-linecap="round" stroke-linejoin="round"/>
<path d="M51.8665 135.415C78.3226 145 107.744 138.195 126.085 118.396C146.97 95.8478 149.639 60.5968 131.724 33.6688" stroke="white" stroke-width="5" stroke-linecap="round" stroke-linejoin="round"/>
<path d="M124.033 9.46783L108.383 25.0579C110.389 28.0799 112.541 30.0496 114.022 31.2193C116.542 33.2102 119.557 35.5994 123.829 35.7132C126.863 35.7949 129.254 34.6928 130.528 33.9782C131.142 33.4556 131.759 32.9329 132.373 32.4138C133.298 31.4397 134.754 29.6194 135.346 27.0027C136.52 21.8048 133.369 17.478 132.099 15.7359C129.422 12.0632 125.978 10.282 124.033 9.47139V9.46783Z" stroke="white" stroke-width="5" stroke-linecap="round" stroke-linejoin="round"/>
<path d="M120.364 10.8757L113.861 4.39435L110.285 7.95677L117.041 14.687" stroke="white" stroke-width="3" stroke-linecap="round" stroke-linejoin="round"/>
<path d="M113.715 18.4307L107.209 11.9529L103.633 15.5154L110.389 22.2456" stroke="white" stroke-width="3" stroke-linecap="round" stroke-linejoin="round"/>
<path d="M77.0557 43.6806C70.2213 55.6158 63.3869 67.5546 56.5525 79.4898H73.3655V101.956L92.434 65.464H77.0557V43.6771V43.6806Z" stroke="#77EA97" stroke-width="5" stroke-linecap="round" stroke-linejoin="round"/>
</svg>
