<svg width="151" height="151" viewBox="0 0 151 151" fill="none" xmlns="http://www.w3.org/2000/svg">
<g filter="url(#filter0_d_132_341)">
<path d="M74.9714 117.276C99.7118 117.276 119.768 97.2957 119.768 72.6493C119.768 48.0028 99.7118 28.0229 74.9714 28.0229C50.2309 28.0229 30.1748 48.0028 30.1748 72.6493C30.1748 97.2957 50.2309 117.276 74.9714 117.276Z" stroke="white" stroke-width="5" stroke-miterlimit="10"/>
<path d="M98.9257 9.70953C72.4696 0.124398 43.0478 6.92927 24.7073 26.7288C3.82222 49.2766 1.1527 84.5276 19.0685 111.456" stroke="white" stroke-width="5" stroke-linecap="round" stroke-linejoin="round"/>
<path d="M26.7595 135.66L42.409 120.07C40.4033 117.048 38.2513 115.078 36.7702 113.909C34.2506 111.918 31.2349 109.529 26.9629 109.415C23.9294 109.333 21.5382 110.435 20.2641 111.15C19.6503 111.672 19.0329 112.195 18.419 112.714C17.4947 113.688 16.0386 115.509 15.4461 118.125C14.272 123.323 17.4233 127.65 18.6938 129.392C21.3705 133.065 24.8144 134.846 26.7595 135.657V135.66Z" stroke="white" stroke-width="5" stroke-linecap="round" stroke-linejoin="round"/>
<path d="M30.4248 134.252L36.9309 140.73L40.5069 137.168L33.751 130.441" stroke="white" stroke-width="3" stroke-linecap="round" stroke-linejoin="round"/>
<path d="M37.0771 126.694L43.5796 133.175L47.1557 129.613L40.4033 122.882" stroke="white" stroke-width="3" stroke-linecap="round" stroke-linejoin="round"/>
<path d="M51.8665 135.415C78.3226 145 107.744 138.195 126.085 118.396C146.97 95.8478 149.639 60.5968 131.724 33.6688" stroke="white" stroke-width="5" stroke-linecap="round" stroke-linejoin="round"/>
<path d="M124.033 9.46777L108.383 25.0578C110.389 28.0799 112.541 30.0495 114.022 31.2192C116.542 33.2102 119.557 35.5993 123.829 35.7131C126.863 35.7949 129.254 34.6927 130.528 33.9781C131.142 33.4555 131.759 32.9329 132.373 32.4138C133.298 31.4396 134.754 29.6193 135.346 27.0026C136.52 21.8047 133.369 17.4779 132.099 15.7358C129.422 12.0632 125.978 10.2819 124.033 9.47133V9.46777Z" stroke="white" stroke-width="5" stroke-linecap="round" stroke-linejoin="round"/>
<path d="M120.364 10.8757L113.861 4.39441L110.285 7.95684L117.041 14.687" stroke="white" stroke-width="3" stroke-linecap="round" stroke-linejoin="round"/>
<path d="M113.715 18.4308L107.209 11.953L103.633 15.5154L110.389 22.2456" stroke="white" stroke-width="3" stroke-linecap="round" stroke-linejoin="round"/>
<path d="M77.0557 43.6806C70.2213 55.6158 63.3869 67.5545 56.5525 79.4897H73.3655V101.956L92.434 65.464H77.0557V43.677V43.6806Z" stroke="#77EA97" stroke-width="5" stroke-linecap="round" stroke-linejoin="round"/>
</g>
<defs>
<filter id="filter0_d_132_341" x="-4" y="0" width="158" height="153" filterUnits="userSpaceOnUse" color-interpolation-filters="sRGB">
<feFlood flood-opacity="0" result="BackgroundImageFix"/>
<feColorMatrix in="SourceAlpha" type="matrix" values="0 0 0 0 0 0 0 0 0 0 0 0 0 0 0 0 0 0 127 0" result="hardAlpha"/>
<feOffset dy="4"/>
<feGaussianBlur stdDeviation="2"/>
<feComposite in2="hardAlpha" operator="out"/>
<feColorMatrix type="matrix" values="0 0 0 0 0 0 0 0 0 0 0 0 0 0 0 0 0 0 0.25 0"/>
<feBlend mode="normal" in2="BackgroundImageFix" result="effect1_dropShadow_132_341"/>
<feBlend mode="normal" in="SourceGraphic" in2="effect1_dropShadow_132_341" result="shape"/>
</filter>
</defs>
</svg>
