<svg width="171" height="133" viewBox="0 0 171 133" fill="none" xmlns="http://www.w3.org/2000/svg">
<path d="M115.883 129V114.082C115.883 106.169 112.739 98.5808 107.144 92.9855C101.549 87.3903 93.9601 84.2469 86.0473 84.2469H33.8354C25.9225 84.2469 18.3338 87.3903 12.7386 92.9855C7.14336 98.5808 4 106.169 4 114.082V129" stroke="white" stroke-width="7" stroke-linecap="round" stroke-linejoin="round"/>
<path d="M63.2455 64.5483C79.602 64.5483 92.8615 50.9941 92.8615 34.2741C92.8615 17.5542 79.602 4 63.2455 4C46.8891 4 33.6295 17.5542 33.6295 34.2741C33.6295 50.9941 46.8891 64.5483 63.2455 64.5483Z" stroke="white" stroke-width="7" stroke-linecap="round" stroke-linejoin="round"/>
<path d="M122.464 54.6309L137.382 69.768L167.217 39.4938" stroke="#77EA97" stroke-width="7" stroke-linecap="round" stroke-linejoin="round"/>
</svg>
