<svg width="245" height="87" viewBox="0 0 245 87" fill="none" xmlns="http://www.w3.org/2000/svg">
<path d="M59.6954 30.921C59.3187 30.921 59.0048 30.8007 58.7537 30.5652C58.5025 30.3246 58.377 30.0316 58.377 29.681C58.377 29.3043 58.5025 28.9956 58.7537 28.7602C59.0048 28.5195 59.3187 28.4044 59.6954 28.4044H69.3014C69.6781 28.4044 69.992 28.5248 70.2432 28.7602C70.4943 29.0009 70.6199 29.3043 70.6199 29.681C70.6199 30.0316 70.4943 30.3298 70.2432 30.5652C69.992 30.8059 69.6781 30.921 69.3014 30.921H59.6954ZM69.0764 48.2495C67.7475 48.2495 66.5598 47.9356 65.5187 47.3077C64.4775 46.6799 63.6561 45.8218 63.0491 44.7283C62.4475 43.6348 62.144 42.3896 62.144 40.9822V22.5603C62.144 22.1312 62.2748 21.7807 62.5416 21.5034C62.8032 21.2261 63.1486 21.0901 63.5776 21.0901C64.0066 21.0901 64.3572 21.2261 64.6344 21.5034C64.9117 21.7807 65.0478 22.1312 65.0478 22.5603V40.9822C65.0478 42.264 65.4245 43.3104 66.1779 44.1266C66.9313 44.9428 67.8992 45.3509 69.0764 45.3509H70.0914C70.4943 45.3509 70.8187 45.487 71.0698 45.7643C71.321 46.0416 71.4465 46.3921 71.4465 46.8211C71.4465 47.2502 71.2948 47.5955 70.9966 47.8571C70.6984 48.1187 70.3164 48.2547 69.8665 48.2547H69.0764V48.2495Z" fill="#77EA97"/>
<path d="M85.238 48.4378C83.3022 48.4378 81.5704 47.9774 80.0374 47.0618C78.5044 46.1462 77.2958 44.8957 76.4012 43.3156C75.5117 41.7356 75.0618 39.9515 75.0618 37.9685C75.0618 35.9856 75.5222 34.1649 76.4378 32.5795C77.3534 30.9995 78.6038 29.749 80.1839 28.8334C81.764 27.9178 83.5481 27.4574 85.531 27.4574C87.514 27.4574 89.2929 27.9178 90.8625 28.8334C92.4321 29.749 93.6773 30.9995 94.5929 32.5795C95.5085 34.1596 95.9794 35.9594 96.0055 37.9685L94.8388 38.8737C94.8388 40.6839 94.4202 42.3059 93.5779 43.7499C92.7355 45.1939 91.5949 46.3345 90.1509 47.1769C88.7069 48.0192 87.0693 48.4378 85.2328 48.4378H85.238ZM85.5415 45.8009C86.996 45.8009 88.2988 45.4608 89.4394 44.7858C90.5799 44.1057 91.4851 43.1744 92.1495 41.9815C92.814 40.7886 93.1489 39.4544 93.1489 37.9685C93.1489 36.4826 92.814 35.1171 92.1495 33.9399C91.4851 32.7574 90.5799 31.8261 89.4394 31.1355C88.2988 30.4449 86.996 30.0996 85.5415 30.0996C84.087 30.0996 82.8156 30.4449 81.6593 31.1355C80.5031 31.8261 79.5875 32.7627 78.9073 33.9399C78.2271 35.1223 77.8923 36.4617 77.8923 37.9685C77.8923 39.4753 78.2324 40.7886 78.9073 41.9815C79.5875 43.1744 80.5031 44.1109 81.6593 44.7858C82.8156 45.466 84.1079 45.8009 85.5415 45.8009ZM94.5458 48.2494C94.1168 48.2494 93.7662 48.1186 93.4889 47.8518C93.2116 47.5902 93.0756 47.2449 93.0756 46.8159V40.3753L93.7924 37.3982L96.016 37.9633V46.8159C96.016 47.2449 95.88 47.5902 95.6027 47.8518C95.3254 48.1134 94.9748 48.2494 94.5458 48.2494Z" fill="#77EA97"/>
<path d="M100.343 30.921C99.9662 30.921 99.6523 30.8007 99.4011 30.5652C99.15 30.3246 99.0244 30.0316 99.0244 29.681C99.0244 29.3043 99.15 28.9956 99.4011 28.7602C99.6523 28.5195 99.9662 28.4044 100.343 28.4044H109.949C110.326 28.4044 110.639 28.5248 110.891 28.7602C111.142 29.0009 111.267 29.3043 111.267 29.681C111.267 30.0316 111.142 30.3298 110.891 30.5652C110.639 30.8059 110.326 30.921 109.949 30.921H100.343ZM109.724 48.2495C108.395 48.2495 107.207 47.9356 106.166 47.3077C105.125 46.6799 104.304 45.8218 103.697 44.7283C103.095 43.6348 102.791 42.3896 102.791 40.9822V22.5603C102.791 22.1312 102.922 21.7807 103.189 21.5034C103.451 21.2261 103.796 21.0901 104.225 21.0901C104.654 21.0901 105.005 21.2261 105.282 21.5034C105.559 21.7807 105.695 22.1312 105.695 22.5603V40.9822C105.695 42.264 106.072 43.3104 106.825 44.1266C107.579 44.9428 108.547 45.3509 109.724 45.3509H110.739C111.142 45.3509 111.466 45.487 111.717 45.7643C111.968 46.0416 112.094 46.3921 112.094 46.8211C112.094 47.2502 111.942 47.5955 111.644 47.8571C111.346 48.1187 110.964 48.2547 110.514 48.2547H109.724V48.2495Z" fill="#77EA97"/>
<path d="M118.838 23.7217C118.284 23.7217 117.808 23.5229 117.405 23.1201C117.002 22.7172 116.803 22.2306 116.803 21.6499C116.803 21.022 117.012 20.525 117.426 20.164C117.839 19.7977 118.325 19.6198 118.875 19.6198C119.424 19.6198 119.874 19.803 120.288 20.164C120.701 20.5302 120.91 21.022 120.91 21.6499C120.91 22.2254 120.711 22.7172 120.308 23.1201C119.906 23.5229 119.419 23.7217 118.838 23.7217ZM118.875 48.2442C118.425 48.2442 118.064 48.1134 117.802 47.8466C117.541 47.585 117.405 47.224 117.405 46.774V29.1055C117.405 28.6555 117.535 28.2945 117.802 28.0329C118.064 27.7713 118.425 27.6353 118.875 27.6353C119.304 27.6353 119.649 27.7661 119.911 28.0329C120.172 28.2998 120.308 28.6555 120.308 29.1055V46.774C120.308 47.224 120.178 47.585 119.911 47.8466C119.644 48.1082 119.304 48.2442 118.875 48.2442Z" fill="#77EA97"/>
<path d="M137.072 48.4378C135.063 48.4378 133.268 47.9879 131.683 47.0827C130.103 46.1776 128.857 44.9376 127.952 43.3523C127.047 41.7722 126.597 39.9724 126.597 37.9633C126.597 35.9542 127.047 34.123 127.952 32.5377C128.857 30.9577 130.097 29.7124 131.683 28.8073C133.263 27.9022 135.063 27.4522 137.072 27.4522C139.081 27.4522 140.87 27.9022 142.44 28.8073C144.009 29.7124 145.244 30.9524 146.149 32.5377C147.054 34.1178 147.52 35.9281 147.541 37.9633C147.541 39.9724 147.081 41.767 146.165 43.3523C145.249 44.9324 144.004 46.1776 142.434 47.0827C140.865 47.9879 139.076 48.4378 137.066 48.4378H137.072ZM137.072 45.8009C138.526 45.8009 139.834 45.4608 140.99 44.7859C142.147 44.1057 143.052 43.1797 143.701 41.9972C144.355 40.8148 144.679 39.4754 144.679 37.9686C144.679 36.4617 144.355 35.1119 143.701 33.919C143.047 32.7261 142.141 31.7896 140.99 31.1146C139.834 30.4345 138.531 30.0996 137.072 30.0996C135.612 30.0996 134.309 30.4397 133.153 31.1146C131.997 31.7948 131.086 32.7261 130.422 33.919C129.757 35.1119 129.422 36.4617 129.422 37.9686C129.422 39.4754 129.757 40.82 130.422 41.9972C131.086 43.1797 131.997 44.1057 133.153 44.7859C134.309 45.4661 135.612 45.8009 137.072 45.8009Z" fill="#77EA97"/>
<path d="M154.662 48.2494C154.212 48.2494 153.851 48.1186 153.589 47.8518C153.328 47.5902 153.192 47.2449 153.192 46.8159V29.1107C153.192 28.6608 153.322 28.2998 153.589 28.0382C153.851 27.7765 154.212 27.6405 154.662 27.6405C155.091 27.6405 155.436 27.7713 155.698 28.0382C155.959 28.305 156.095 28.6608 156.095 29.1107V46.8159C156.095 47.2449 155.965 47.5902 155.698 47.8518C155.431 48.1134 155.091 48.2494 154.662 48.2494ZM170.86 48.2494C170.431 48.2494 170.081 48.1134 169.803 47.8361C169.526 47.5588 169.39 47.2187 169.39 46.8211V37.0268C169.39 35.4676 169.097 34.191 168.506 33.1865C167.915 32.1819 167.114 31.4285 166.094 30.9262C165.079 30.424 163.928 30.1728 162.646 30.1728C161.364 30.1728 160.302 30.4135 159.313 30.8896C158.319 31.3657 157.534 32.0197 156.959 32.8464C156.383 33.673 156.09 34.6148 156.09 35.6717H154.018C154.071 34.0916 154.494 32.679 155.3 31.4337C156.106 30.1885 157.173 29.2101 158.502 28.4933C159.831 27.7765 161.317 27.4208 162.949 27.4208C164.733 27.4208 166.329 27.7922 167.731 28.53C169.139 29.2729 170.248 30.3559 171.064 31.7895C171.88 33.2231 172.289 34.9653 172.289 37.0268V46.8211C172.289 47.224 172.152 47.564 171.875 47.8361C171.598 48.1082 171.258 48.2494 170.86 48.2494Z" fill="#77EA97"/>
<path d="M71.1795 74.9223C69.3954 74.9223 67.7996 74.5508 66.3974 73.8131C64.99 73.0702 63.8808 71.9872 63.0646 70.5536C62.2484 69.12 61.8403 67.3777 61.8403 65.3163V55.522C61.8403 55.1191 61.9764 54.779 62.2537 54.507C62.531 54.2297 62.871 54.0936 63.2687 54.0936C63.6977 54.0936 64.0482 54.2297 64.3255 54.507C64.6028 54.7843 64.7389 55.1243 64.7389 55.522V65.3163C64.7389 66.8755 65.0319 68.1521 65.6231 69.1566C66.2143 70.1612 67.0148 70.9146 68.035 71.4169C69.0501 71.9191 70.2011 72.1703 71.4829 72.1703C72.7648 72.1703 73.8269 71.9296 74.8157 71.4535C75.8098 70.9774 76.5946 70.3234 77.1701 69.4967C77.7457 68.67 78.0387 67.7283 78.0387 66.6714H80.1105C80.0373 68.2515 79.603 69.6641 78.813 70.9094C78.023 72.1546 76.9609 73.133 75.6319 73.8497C74.303 74.5665 72.8171 74.9223 71.1847 74.9223H71.1795ZM79.467 74.6973C79.038 74.6973 78.6927 74.5665 78.4311 74.2997C78.1695 74.0329 78.0334 73.6771 78.0334 73.2271V55.522C78.0334 55.093 78.1642 54.7476 78.4311 54.486C78.6979 54.2244 79.038 54.0884 79.467 54.0884C79.896 54.0884 80.2466 54.2192 80.5239 54.486C80.8012 54.7476 80.9372 55.093 80.9372 55.522V73.2271C80.9372 73.6771 80.8012 74.0381 80.5239 74.2997C80.2466 74.5613 79.896 74.6973 79.467 74.6973Z" fill="white"/>
<path d="M89.188 83.5132C88.738 83.5132 88.377 83.3824 88.1154 83.1156C87.8538 82.854 87.7178 82.493 87.7178 82.043V64.2646C87.7439 62.3079 88.2148 60.5394 89.1304 58.9698C90.046 57.4002 91.2912 56.1655 92.8608 55.2603C94.4305 54.3552 96.1936 53.9052 98.1557 53.9052C100.118 53.9052 101.959 54.3657 103.545 55.2813C105.125 56.1969 106.375 57.4473 107.291 59.0274C108.206 60.6075 108.667 62.4073 108.667 64.4164C108.667 66.4255 108.222 68.1834 107.327 69.7635C106.438 71.3436 105.224 72.594 103.691 73.5096C102.158 74.4252 100.426 74.8856 98.4905 74.8856C96.8058 74.8856 95.2833 74.5299 93.9125 73.8131C92.5417 73.0963 91.443 72.1493 90.6163 70.9669V82.043C90.6163 82.493 90.4855 82.854 90.2187 83.1156C89.9571 83.3772 89.6118 83.5132 89.1827 83.5132H89.188ZM98.1557 72.2487C99.6102 72.2487 100.918 71.9086 102.074 71.2337C103.231 70.5535 104.141 69.6222 104.806 68.4293C105.47 67.2364 105.805 65.897 105.805 64.4164C105.805 62.9357 105.47 61.5649 104.806 60.3877C104.141 59.2053 103.231 58.274 102.074 57.5834C100.918 56.8927 99.6102 56.5474 98.1557 56.5474C96.7011 56.5474 95.4298 56.8927 94.2735 57.5834C93.1172 58.274 92.2121 59.2105 91.5633 60.3877C90.9093 61.5701 90.5849 62.9095 90.5849 64.4164C90.5849 65.9232 90.9093 67.2364 91.5633 68.4293C92.2173 69.6222 93.1224 70.5588 94.2735 71.2337C95.4298 71.9139 96.7221 72.2487 98.1557 72.2487Z" fill="white"/>
<path d="M123.693 74.8856C121.658 74.8856 119.858 74.4409 118.289 73.5463C116.719 72.6568 115.489 71.4168 114.595 69.8368C113.705 68.2567 113.255 66.4464 113.255 64.4111C113.255 62.3759 113.674 60.5394 114.516 58.9698C115.359 57.4002 116.52 56.1655 118.001 55.2603C119.481 54.3552 121.192 53.9052 123.123 53.9052C125.054 53.9052 126.696 54.3395 128.114 55.2028C129.532 56.0713 130.631 57.2694 131.41 58.8024C132.19 60.3354 132.577 62.0777 132.577 64.0397C132.577 64.4425 132.452 64.7617 132.201 65.0024C131.949 65.243 131.625 65.3581 131.222 65.3581H115.212V62.9462H131.526L129.904 64.1129C129.93 62.6584 129.663 61.3504 129.114 60.1941C128.559 59.0378 127.774 58.1327 126.759 57.4839C125.744 56.8299 124.53 56.5056 123.123 56.5056C121.716 56.5056 120.434 56.8456 119.356 57.5206C118.278 58.2007 117.441 59.132 116.85 60.3249C116.259 61.5178 115.966 62.8781 115.966 64.4111C115.966 65.9441 116.3 67.2992 116.965 68.4816C117.629 69.6641 118.54 70.5902 119.696 71.2703C120.852 71.9505 122.181 72.2853 123.688 72.2853C124.593 72.2853 125.504 72.1284 126.419 71.8145C127.335 71.5005 128.072 71.1029 128.622 70.6268C128.899 70.4018 129.213 70.2815 129.564 70.271C129.914 70.2605 130.218 70.3547 130.469 70.5535C130.793 70.857 130.966 71.1814 130.976 71.5319C130.987 71.8825 130.845 72.1859 130.542 72.4371C129.715 73.1382 128.658 73.7241 127.377 74.1898C126.095 74.6554 124.865 74.8856 123.683 74.8856H123.693Z" fill="white"/>
<path d="M138.913 74.6973C138.463 74.6973 138.108 74.5718 137.856 74.3206C137.605 74.0695 137.48 73.7189 137.48 73.2638V55.522C137.48 55.072 137.605 54.7162 137.856 54.4651C138.108 54.214 138.458 54.0884 138.913 54.0884C139.368 54.0884 139.719 54.214 139.97 54.4651C140.221 54.7162 140.347 55.0668 140.347 55.522V73.2638C140.347 73.7137 140.221 74.0695 139.97 74.3206C139.719 74.5718 139.368 74.6973 138.913 74.6973ZM138.688 62.0045C138.762 60.4453 139.17 59.0536 139.913 57.8241C140.656 56.5945 141.618 55.6266 142.811 54.9255C144.004 54.2244 145.328 53.8687 146.788 53.8687C147.944 53.8687 148.833 54.0308 149.461 54.3605C150.089 54.6848 150.33 55.1662 150.178 55.794C150.078 56.1707 149.906 56.4219 149.67 56.5475C149.43 56.673 149.142 56.7253 148.802 56.6992C148.462 56.673 148.08 56.6469 147.651 56.6259C146.243 56.5004 144.993 56.6469 143.905 57.0602C142.816 57.4735 141.948 58.1066 141.304 58.9646C140.666 59.8175 140.342 60.8377 140.342 62.0149H138.683L138.688 62.0045Z" fill="white"/>
<path d="M161.777 74.6973C161.175 74.6973 160.72 74.3729 160.422 73.7189L152.061 55.9771C151.91 55.6528 151.899 55.3231 152.025 54.9988C152.15 54.6744 152.401 54.4232 152.778 54.2453C153.129 54.0727 153.469 54.0465 153.793 54.1721C154.117 54.2977 154.369 54.5226 154.546 54.8523L162.572 72.2173H161.029L168.94 54.8523C169.092 54.5017 169.348 54.2663 169.714 54.1564C170.08 54.0413 170.436 54.0622 170.787 54.2139C171.137 54.3918 171.378 54.6482 171.503 54.9883C171.629 55.3284 171.619 55.6475 171.467 55.951L163.216 73.7294C162.912 74.3834 162.436 74.7078 161.782 74.7078L161.777 74.6973Z" fill="white"/>
<path d="M177.599 50.1748C177.044 50.1748 176.568 49.976 176.165 49.5732C175.762 49.1703 175.563 48.6837 175.563 48.103C175.563 47.4751 175.773 46.9781 176.186 46.6171C176.599 46.2508 177.086 46.0729 177.635 46.0729C178.185 46.0729 178.635 46.2561 179.048 46.6171C179.461 46.9833 179.671 47.4751 179.671 48.103C179.671 48.6837 179.472 49.1703 179.069 49.5732C178.666 49.976 178.179 50.1748 177.599 50.1748ZM177.635 74.6973C177.185 74.6973 176.824 74.5665 176.563 74.2997C176.301 74.0329 176.165 73.6771 176.165 73.2271V55.5586C176.165 55.1086 176.296 54.7476 176.563 54.486C176.83 54.2244 177.185 54.0884 177.635 54.0884C178.064 54.0884 178.41 54.2192 178.671 54.486C178.933 54.7529 179.069 55.1086 179.069 55.5586V73.2271C179.069 73.6771 178.938 74.0381 178.671 74.2997C178.404 74.5613 178.064 74.6973 177.635 74.6973Z" fill="white"/>
<path d="M193.645 74.8857C192.165 74.8857 190.694 74.6345 189.24 74.1323C187.785 73.63 186.603 72.8766 185.698 71.872C185.421 71.5686 185.305 71.2337 185.358 70.857C185.41 70.4803 185.598 70.1559 185.923 69.8786C186.273 69.6275 186.64 69.5281 187.016 69.5752C187.393 69.6275 187.707 69.7897 187.958 70.067C188.56 70.7681 189.355 71.3122 190.349 71.6889C191.343 72.0656 192.442 72.254 193.645 72.254C195.503 72.254 196.847 71.9348 197.674 71.2913C198.501 70.653 198.93 69.8786 198.956 68.9735C198.956 68.0683 198.527 67.3202 197.674 66.7342C196.821 66.1482 195.414 65.6878 193.457 65.3581C190.919 64.9553 189.062 64.2542 187.88 63.2496C186.697 62.2451 186.111 61.0522 186.111 59.671C186.111 58.3891 186.451 57.3218 187.126 56.4689C187.801 55.6161 188.706 54.9726 189.836 54.5488C190.966 54.1198 192.212 53.9105 193.567 53.9105C195.251 53.9105 196.701 54.1983 197.92 54.779C199.139 55.3545 200.122 56.1341 200.876 57.1125C201.127 57.4369 201.226 57.777 201.179 58.1275C201.127 58.478 200.928 58.7658 200.578 58.996C200.274 59.1739 199.929 59.2262 199.542 59.1634C199.149 59.1007 198.82 58.9175 198.542 58.6193C197.915 57.8921 197.187 57.3584 196.355 57.0183C195.524 56.6782 194.571 56.5108 193.494 56.5108C192.112 56.5108 191.008 56.7933 190.176 57.3584C189.35 57.9235 188.931 58.635 188.931 59.4878C188.931 60.0634 189.088 60.5656 189.402 60.9946C189.716 61.4237 190.255 61.8004 191.024 62.1248C191.788 62.4491 192.866 62.7265 194.247 62.9514C196.13 63.2549 197.616 63.6996 198.71 64.2908C199.803 64.882 200.583 65.5727 201.043 66.3627C201.509 67.1527 201.739 68.016 201.739 68.9421C201.739 70.1245 201.394 71.1605 200.703 72.0499C200.013 72.9446 199.06 73.6404 197.841 74.1427C196.622 74.645 195.225 74.8961 193.64 74.8961L193.645 74.8857Z" fill="white"/>
<path d="M216.138 74.8857C214.129 74.8857 212.334 74.4357 210.749 73.5306C209.169 72.6255 207.924 71.3855 207.019 69.8002C206.114 68.2201 205.664 66.4203 205.664 64.4112C205.664 62.4021 206.114 60.5709 207.019 58.9856C207.924 57.4055 209.164 56.1603 210.749 55.2551C212.329 54.35 214.129 53.9001 216.138 53.9001C218.147 53.9001 219.937 54.35 221.506 55.2551C223.076 56.1603 224.31 57.4003 225.216 58.9856C226.121 60.5656 226.586 62.3759 226.607 64.4112C226.607 66.4203 226.147 68.2149 225.231 69.8002C224.316 71.3802 223.07 72.6255 221.501 73.5306C219.931 74.4357 218.142 74.8857 216.133 74.8857H216.138ZM216.138 72.2487C217.593 72.2487 218.901 71.9087 220.057 71.2337C221.213 70.5536 222.113 69.6275 222.767 68.4451C223.421 67.2679 223.745 65.9232 223.745 64.4164C223.745 62.9096 223.421 61.5597 222.767 60.3668C222.113 59.1739 221.208 58.2374 220.057 57.5625C218.901 56.8823 217.593 56.5475 216.138 56.5475C214.684 56.5475 213.376 56.8875 212.219 57.5625C211.063 58.2426 210.153 59.1739 209.488 60.3668C208.824 61.5597 208.489 62.9096 208.489 64.4164C208.489 65.9232 208.824 67.2679 209.488 68.4451C210.153 69.6275 211.063 70.5536 212.219 71.2337C213.376 71.9139 214.678 72.2487 216.138 72.2487Z" fill="white"/>
<path d="M233.691 74.6973C233.241 74.6973 232.885 74.5718 232.634 74.3206C232.383 74.0695 232.258 73.7189 232.258 73.2638V55.522C232.258 55.072 232.383 54.7162 232.634 54.4651C232.885 54.214 233.236 54.0884 233.691 54.0884C234.146 54.0884 234.497 54.214 234.748 54.4651C234.999 54.7162 235.125 55.0668 235.125 55.522V73.2638C235.125 73.7137 234.999 74.0695 234.748 74.3206C234.497 74.5718 234.146 74.6973 233.691 74.6973ZM233.466 62.0045C233.539 60.4453 233.948 59.0536 234.69 57.8241C235.433 56.5945 236.396 55.6266 237.589 54.9255C238.782 54.2244 240.106 53.8687 241.565 53.8687C242.722 53.8687 243.611 54.0308 244.239 54.3605C244.867 54.6848 245.107 55.1662 244.956 55.794C244.856 56.1707 244.684 56.4219 244.448 56.5475C244.208 56.673 243.92 56.7253 243.58 56.6992C243.24 56.673 242.858 56.6469 242.429 56.6259C241.021 56.5004 239.771 56.6469 238.682 57.0602C237.594 57.4735 236.726 58.1066 236.082 58.9646C235.444 59.8175 235.119 60.8377 235.119 62.0149H233.461L233.466 62.0045Z" fill="white"/>
<path d="M49.8066 33.2126C49.9165 32.4906 49.9949 31.6273 49.9845 30.6594C49.974 29.8223 49.9008 29.0741 49.8066 28.4253C51.5802 27.1435 53.3539 25.8564 55.1276 24.5745C55.4101 24.3025 55.9385 23.7113 56.1426 22.8009C56.2891 22.1417 56.2001 21.608 56.1112 21.0691C55.9594 20.1849 55.6769 19.6041 55.2584 18.7565C54.6253 17.4642 54.123 16.9724 53.6731 16.7056C53.6417 16.6847 53.6155 16.669 53.6103 16.669C52.9301 16.2975 52.2709 16.3132 51.7686 16.355C51.01 16.4178 48.7497 16.7003 45.7047 17.2549C45.3541 16.6742 44.8885 16.0097 44.2816 15.3243C43.6328 14.5866 42.984 14.0216 42.4294 13.5925" stroke="white" stroke-width="3" stroke-linecap="round" stroke-linejoin="round"/>
<path d="M45.6891 17.2393C45.3071 16.669 44.8415 16.0464 44.2764 15.4028C43.6224 14.6651 42.9737 14.0634 42.3929 13.5821C42.8376 11.4997 43.2876 9.41739 43.7323 7.34028C43.7951 6.96881 43.8631 6.20493 43.4969 5.41489C43.4969 5.41489 43.4812 5.38351 43.4655 5.34688C43.2248 4.86554 42.7748 4.32664 41.5558 3.62031C40.7553 3.15466 40.2059 2.83551 39.3636 2.64716C38.8508 2.53205 38.3433 2.41695 37.705 2.54775C36.826 2.72564 36.2348 3.25407 35.9628 3.5366C34.6548 5.3992 33.3467 7.2618 32.044 9.1244C31.4475 8.99883 30.7517 8.89942 29.9826 8.85233C29.0617 8.80001 28.2403 8.8471 27.5444 8.93081" stroke="white" stroke-width="3" stroke-linecap="round" stroke-linejoin="round"/>
<path d="M32.0284 9.04065C31.3954 8.92555 30.6524 8.83138 29.8258 8.80522C28.9625 8.77905 28.1881 8.83137 27.5237 8.91508C25.818 6.02701 24.4472 3.98129 23.9711 3.34299C23.584 2.82502 23.1445 2.38553 22.5009 2.15009C22.5009 2.15009 22.4695 2.13962 22.4329 2.12392C21.9359 1.9565 21.2505 1.90941 19.9111 2.30181C19.0269 2.55818 18.4252 2.73607 17.6979 3.22265C17.2584 3.51564 16.819 3.80864 16.4527 4.37369C15.9504 5.14803 15.8929 5.95376 15.8877 6.3514C16.212 8.48083 16.5312 10.6155 16.8556 12.7449C16.301 13.2001 15.7098 13.739 15.1028 14.3668C14.4698 15.0261 13.9256 15.6696 13.4705 16.2713" stroke="white" stroke-width="3" stroke-linecap="round" stroke-linejoin="round"/>
<path d="M16.8712 12.7763C16.3375 13.1896 15.7515 13.6919 15.1498 14.3041C14.4592 15.0051 13.9046 15.6958 13.4599 16.3184C11.4456 15.9155 9.43648 15.5127 7.42215 15.1098C7.06638 15.0575 6.32343 15.0051 5.57525 15.408C5.57525 15.408 5.54386 15.4237 5.51247 15.4446C5.05728 15.7115 4.54977 16.1981 3.91147 17.4799C3.48767 18.3275 3.19991 18.9082 3.04295 19.7872C2.94878 20.3261 2.8546 20.8545 2.99586 21.519C3.19468 22.4294 3.71788 23.0258 4.00041 23.3031C5.82639 24.6059 7.65759 25.9087 9.48357 27.2114C9.38416 27.8393 9.30568 28.5613 9.28475 29.3618C9.26382 30.3245 9.33184 31.1773 9.43125 31.8941" stroke="white" stroke-width="3" stroke-linecap="round" stroke-linejoin="round"/>
<path d="M9.48353 27.2167C9.39459 27.9178 9.3318 28.713 9.32134 29.5815C9.31087 30.4501 9.35273 31.2453 9.42598 31.9516C6.74718 33.7462 4.85319 35.1903 4.25151 35.6978C3.74924 36.1268 3.3516 36.5977 3.13709 37.2569C3.13709 37.2569 3.12663 37.2935 3.11616 37.3302C2.96967 37.8534 2.93827 38.5649 3.34637 39.9514C3.61844 40.867 3.80156 41.4896 4.2829 42.2326C4.5759 42.6878 4.86366 43.1325 5.41825 43.4987C6.17166 44.001 6.95123 44.0481 7.33317 44.0376C9.38935 43.6138 11.4403 43.19 13.4965 42.7715C13.847 43.347 14.3336 44.0219 14.9824 44.7125C15.5265 45.2881 16.0654 45.7433 16.5363 46.0886" stroke="white" stroke-width="3" stroke-linecap="round" stroke-linejoin="round"/>
<path d="M13.3816 42.8238C13.7949 43.3889 14.2867 43.9958 14.8675 44.6184C15.4482 45.241 16.0185 45.7747 16.547 46.2194C15.8616 49.458 15.5006 51.87 15.4221 52.6757C15.3593 53.3506 15.3907 53.9733 15.6941 54.5959C15.6941 54.5959 15.7098 54.6273 15.7308 54.6639C15.9819 55.14 16.4423 55.6684 17.6718 56.3538C18.4828 56.8038 19.0374 57.1125 19.8798 57.2851C20.3977 57.3898 20.9 57.4944 21.5383 57.3479C22.4173 57.1491 22.9928 56.6102 23.2596 56.3224C24.4264 54.5122 25.5984 52.7071 26.7651 50.8968C27.4034 51.0433 28.2039 51.1689 29.13 51.1794C29.9095 51.1898 30.5949 51.1113 31.1652 51.0119" stroke="white" stroke-width="3" stroke-linecap="round" stroke-linejoin="round"/>
<path d="M8.45283 54.1721C8.34296 54.8732 8.25925 55.7103 8.26971 56.6521C8.28017 57.463 8.35342 58.1955 8.45283 58.8234C6.66871 60.0686 4.88459 61.319 3.10047 62.5642C2.81795 62.8311 2.28428 63.4066 2.08023 64.2856C1.9285 64.9291 2.02268 65.4419 2.11162 65.9651C2.26335 66.8231 2.55111 67.3882 2.96967 68.2148C3.60798 69.4705 4.11025 69.9466 4.56544 70.2082C4.59683 70.2292 4.62822 70.2396 4.62822 70.2449C5.31362 70.6059 5.97285 70.5954 6.48036 70.5536C7.24424 70.4908 9.51493 70.2187 12.5757 69.6746C12.9262 70.2344 13.3971 70.8884 14.004 71.5529C14.658 72.2697 15.3068 72.819 15.8666 73.2323" stroke="white" stroke-width="3" stroke-linecap="round" stroke-linejoin="round"/>
<path d="M12.5913 69.6955C12.9732 70.2501 13.4441 70.857 14.0144 71.4796C14.6737 72.1964 15.3224 72.7824 15.9084 73.248C15.4585 75.2728 15.0085 77.2924 14.5585 79.3172C14.4958 79.6782 14.4277 80.4211 14.794 81.1902C14.794 81.1902 14.8097 81.2216 14.8254 81.2583C15.0661 81.7291 15.5212 82.2523 16.7455 82.9377C17.5513 83.3929 18.1006 83.7016 18.9482 83.8847C19.4662 83.9946 19.9737 84.1097 20.6172 83.9789C21.5014 83.8063 22.0927 83.2935 22.37 83.0162C23.6832 81.2059 24.9964 79.3957 26.3149 77.5906C26.9166 77.7109 27.6124 77.8104 28.3868 77.8522C29.3128 77.9045 30.1395 77.8575 30.8406 77.779" stroke="white" stroke-width="3" stroke-linecap="round" stroke-linejoin="round"/>
<path d="M26.3306 77.6639C26.9689 77.779 27.7118 77.8679 28.5437 77.8889C29.4122 77.915 30.1918 77.8627 30.8563 77.7842C32.5724 80.5938 33.9536 82.582 34.4297 83.1994C34.8221 83.7016 35.2616 84.1307 35.9104 84.3609C35.9104 84.3609 35.947 84.3713 35.9784 84.3818C36.4807 84.544 37.1661 84.5911 38.5159 84.2091C39.4054 83.958 40.0123 83.7853 40.7396 83.3145C41.1843 83.0267 41.6238 82.7442 41.99 82.2C42.4975 81.4466 42.5551 80.6671 42.5551 80.2747C42.2307 78.2028 41.9063 76.1309 41.5819 74.059C42.1365 73.6143 42.7329 73.0911 43.3451 72.479C43.9834 71.8406 44.5275 71.2128 44.988 70.632" stroke="white" stroke-width="3" stroke-linecap="round" stroke-linejoin="round"/>
<path d="M41.5767 74.0276C42.1156 73.6247 42.7015 73.1382 43.3032 72.5417C43.9991 71.8563 44.5589 71.1866 45.0036 70.5849C47.0284 70.9773 49.0532 71.3697 51.0728 71.7569C51.4338 71.8092 52.1767 71.8563 52.9301 71.4639C52.9301 71.4639 52.9615 71.4482 52.9929 71.4273C53.4533 71.1709 53.9609 70.6948 54.6044 69.4496C55.0282 68.6229 55.3212 68.0631 55.4781 67.2051C55.5723 66.6819 55.6665 66.1691 55.5252 65.5256C55.3264 64.6414 54.798 64.0606 54.5154 63.7938C52.679 62.5276 50.8373 61.2615 49.0009 59.9953C49.1003 59.3884 49.1788 58.6821 49.1997 57.9025C49.2206 56.9712 49.1526 56.1393 49.0532 55.4382" stroke="white" stroke-width="3" stroke-linecap="round" stroke-linejoin="round"/>
<path d="M49.0063 60.0006C49.0952 59.3152 49.158 58.5461 49.1685 57.7037C49.1789 56.8561 49.1371 56.087 49.0638 55.4016C51.7583 53.6594 53.6628 52.2572 54.2645 51.7601C54.772 51.3416 55.1696 50.8864 55.3841 50.2429C55.3841 50.2429 55.3946 50.2062 55.405 50.1696C55.5515 49.6621 55.5829 48.9662 55.1748 47.6216C54.9028 46.7322 54.7196 46.1253 54.2331 45.4032C53.9348 44.9637 53.6471 44.5295 53.0925 44.1737C52.3338 43.6819 51.5543 43.64 51.1671 43.6505C49.1004 44.0586 47.0338 44.4719 44.9724 44.88C44.6166 44.3202 44.1353 43.661 43.4813 42.9965C42.9319 42.4367 42.393 41.9972 41.9221 41.6571" stroke="white" stroke-width="3" stroke-linecap="round" stroke-linejoin="round"/>
<path d="M45.0456 44.7963C44.6323 44.247 44.1457 43.6505 43.565 43.0384C42.9842 42.4262 42.4192 41.903 41.8907 41.4635C42.6075 38.3243 42.9999 35.9804 43.0836 35.2008C43.1569 34.5468 43.1255 33.9399 42.8325 33.3277C42.8325 33.3277 42.8168 33.2963 42.8011 33.2597C42.5552 32.7941 42.0948 32.2761 40.8653 31.6012C40.0543 31.1564 39.4997 30.853 38.6521 30.6751C38.1341 30.5652 37.6266 30.4606 36.9831 30.5966C36.0989 30.7797 35.5129 31.2977 35.2408 31.575C34.0479 33.3225 32.855 35.0648 31.6621 36.8123C31.0238 36.6605 30.2181 36.5297 29.2816 36.514C28.502 36.4983 27.8114 36.5611 27.2358 36.6553" stroke="white" stroke-width="3" stroke-linecap="round" stroke-linejoin="round"/>
<path d="M27.7937 42.8033C20.5478 41.692 15.2126 35.7806 15.0061 29.0344C14.8262 23.1229 18.6159 17.5767 24.0199 15.5993C30.9429 13.0636 39.5808 16.7263 43 24.5943" stroke="#77EA97" stroke-width="3" stroke-linecap="round" stroke-linejoin="round"/>
<path d="M27.5511 42.8603C32.9401 42.3905 38.1075 44.8517 40.9102 49.2723C44.3885 54.7659 42.5306 60.628 42.2878 61.3594C42.0978 61.92 39.9496 68.0009 33.9166 70.1098C28.1053 72.1385 21.1064 69.6293 17 63.7245" stroke="#77EA97" stroke-width="3" stroke-linecap="round" stroke-linejoin="round"/>
</svg>
