<?xml version="1.0" encoding="UTF-8"?><svg id="Calque_1" xmlns="http://www.w3.org/2000/svg" viewBox="0 0 471.38 367.22"><defs><style>.cls-1{fill:#fff;}.cls-2{stroke:#fff;}.cls-2,.cls-3{fill:none;stroke-linecap:round;stroke-linejoin:round;stroke-width:10px;}.cls-3{stroke:#89c58c;}.cls-4{fill:#89c58c;}</style></defs><g><g><path class="cls-2" d="M275.79,116.03c.39-2.57,.68-5.63,.64-9.08-.03-2.97-.29-5.65-.64-7.94,6.31-4.57,12.62-9.13,18.93-13.7,1-.97,2.88-3.08,3.61-6.31,.53-2.35,.21-4.24-.12-6.15-.54-3.14-1.55-5.2-3.03-8.24-2.25-4.59-4.03-6.34-5.65-7.29-.11-.07-.21-.12-.23-.13-2.42-1.33-4.76-1.27-6.55-1.12-2.7,.23-10.74,1.23-21.57,3.21-1.25-2.06-2.9-4.43-5.06-6.88-2.31-2.62-4.61-4.63-6.58-6.15"/><path class="cls-2" d="M261.15,59.2c-1.35-2.02-3.01-4.25-5.03-6.53-2.33-2.63-4.63-4.76-6.7-6.48,1.59-7.4,3.18-14.81,4.77-22.21,.22-1.32,.47-4.05-.83-6.86,0-.02-.06-.12-.12-.24-.86-1.72-2.46-3.63-6.79-6.15-2.85-1.66-4.8-2.79-7.79-3.47-1.83-.41-3.62-.82-5.9-.35-3.13,.64-5.23,2.51-6.19,3.52-4.65,6.62-9.3,13.25-13.95,19.87-2.13-.44-4.59-.81-7.33-.96-3.28-.18-6.21-.02-8.68,.27"/><path class="cls-2" d="M212.55,30.04c-2.26-.41-4.89-.74-7.83-.83-3.07-.09-5.83,.09-8.19,.39-6.07-10.28-10.95-17.56-12.64-19.82-1.38-1.84-2.94-3.41-5.24-4.25-.02,0-.12-.04-.25-.09-1.77-.59-4.21-.76-8.98,.63-3.15,.92-5.29,1.55-7.87,3.27-1.57,1.05-3.12,2.08-4.42,4.09-1.79,2.75-2,5.62-2,7.04,1.15,7.58,2.3,15.17,3.45,22.75-1.97,1.63-4.07,3.54-6.23,5.78-2.26,2.34-4.19,4.64-5.81,6.77"/><path class="cls-2" d="M158.62,43.33c-1.9,1.47-3.99,3.26-6.12,5.43-2.45,2.5-4.44,4.96-6.02,7.16-7.16-1.43-14.32-2.86-21.48-4.3-1.27-.19-3.9-.37-6.56,1.07-.01,0-.11,.06-.23,.13-1.62,.94-3.42,2.67-5.7,7.25-1.51,3.02-2.54,5.08-3.09,8.21-.34,1.91-.68,3.79-.16,6.15,.7,3.24,2.57,5.36,3.57,6.34,6.5,4.64,13,9.27,19.5,13.91-.36,2.23-.64,4.8-.7,7.66-.08,3.42,.17,6.46,.52,9.02"/><path class="cls-2" d="M132.33,94.69c-.31,2.5-.54,5.32-.58,8.41-.04,3.09,.12,5.92,.37,8.43-9.54,6.38-16.28,11.51-18.4,13.33-1.79,1.53-3.21,3.2-3.96,5.55,0,.02-.04,.13-.08,.26-.52,1.86-.63,4.4,.82,9.33,.96,3.25,1.61,5.47,3.33,8.11,1.05,1.61,2.08,3.2,4.03,4.5,2.69,1.79,5.45,1.95,6.81,1.92,7.31-1.5,14.61-3.01,21.92-4.51,1.25,2.04,2.97,4.45,5.28,6.9,1.94,2.05,3.85,3.66,5.52,4.89"/><path class="cls-2" d="M146.19,150.22c1.47,2,3.22,4.17,5.29,6.39,2.07,2.22,4.1,4.11,5.98,5.7-2.44,11.52-3.73,20.11-4,22.96-.23,2.4-.11,4.63,.96,6.84,0,.02,.06,.12,.12,.24,.89,1.7,2.53,3.58,6.91,6.01,2.89,1.6,4.85,2.69,7.86,3.3,1.83,.37,3.64,.74,5.91,.23,3.12-.7,5.18-2.62,6.13-3.65,4.16-6.43,8.32-12.86,12.48-19.29,2.27,.53,5.12,.98,8.42,1.01,2.76,.03,5.21-.23,7.23-.59"/></g><g><path class="cls-2" d="M128.67,190.59c-.39,2.5-.68,5.47-.64,8.83,.03,2.89,.29,5.49,.65,7.72-6.35,4.44-12.7,8.87-19.04,13.31-1.01,.94-2.9,2.99-3.63,6.13-.53,2.29-.21,4.12,.12,5.98,.54,3.05,1.56,5.06,3.05,8,2.27,4.46,4.05,6.16,5.68,7.09,.12,.07,.21,.12,.23,.13,2.43,1.29,4.79,1.24,6.59,1.09,2.71-.22,10.8-1.2,21.69-3.12,1.25,2,2.92,4.31,5.08,6.68,2.33,2.54,4.63,4.5,6.62,5.98"/><path class="cls-2" d="M143.39,245.82c1.36,1.97,3.03,4.13,5.06,6.34,2.34,2.55,4.65,4.63,6.74,6.29-1.6,7.2-3.2,14.39-4.8,21.59-.22,1.28-.47,3.93,.83,6.67,0,.02,.06,.12,.12,.23,.86,1.67,2.48,3.53,6.83,5.98,2.87,1.61,4.83,2.71,7.84,3.37,1.84,.4,3.64,.79,5.94,.34,3.15-.62,5.26-2.44,6.23-3.42,4.68-6.44,9.35-12.87,14.03-19.31,2.14,.43,4.62,.78,7.38,.93,3.3,.18,6.24,.02,8.73-.26"/><path class="cls-2" d="M192.27,274.17c2.27,.4,4.92,.72,7.87,.81,3.09,.09,5.86-.09,8.23-.38,6.1,9.99,11.01,17.07,12.72,19.26,1.39,1.79,2.96,3.31,5.27,4.13,.02,0,.12,.04,.25,.08,1.78,.57,4.23,.74,9.03-.61,3.17-.9,5.32-1.5,7.92-3.18,1.58-1.02,3.14-2.02,4.45-3.97,1.8-2.67,2.01-5.46,2.01-6.84-1.16-7.37-2.31-14.74-3.47-22.11,1.98-1.58,4.1-3.44,6.27-5.61,2.27-2.28,4.21-4.51,5.84-6.58"/><path class="cls-2" d="M246.51,261.25c1.91-1.43,4.01-3.17,6.15-5.28,2.47-2.43,4.46-4.82,6.05-6.96,7.2,1.39,14.4,2.78,21.6,4.18,1.28,.18,3.92,.36,6.6-1.04,.01,0,.11-.06,.23-.12,1.63-.92,3.44-2.6,5.73-7.04,1.52-2.93,2.55-4.93,3.11-7.98,.34-1.86,.68-3.69,.16-5.98-.71-3.15-2.59-5.21-3.59-6.16-6.54-4.51-13.08-9.01-19.62-13.52,.36-2.16,.64-4.66,.71-7.44,.08-3.32-.17-6.28-.53-8.76"/><path class="cls-2" d="M272.95,211.33c.32-2.43,.54-5.17,.58-8.18,.04-3.01-.12-5.76-.37-8.2,9.59-6.2,16.37-11.19,18.51-12.96,1.8-1.49,3.23-3.11,3.98-5.4,0-.02,.04-.12,.08-.25,.53-1.81,.64-4.28-.82-9.07-.97-3.16-1.62-5.32-3.35-7.88-1.05-1.57-2.09-3.11-4.05-4.38-2.7-1.74-5.48-1.89-6.85-1.86-7.35,1.46-14.7,2.92-22.05,4.38-1.26-1.98-2.99-4.33-5.31-6.71-1.95-2-3.87-3.55-5.56-4.76"/><path class="cls-2" d="M258.85,157.24c-1.46-1.96-3.2-4.08-5.26-6.26-2.06-2.18-4.08-4.04-5.96-5.6,2.56-11.17,3.94-19.51,4.25-22.27,.26-2.33,.15-4.49-.9-6.66,0-.01-.06-.12-.12-.23-.88-1.66-2.51-3.51-6.89-5.91-2.89-1.58-4.85-2.66-7.87-3.29-1.84-.38-3.65-.76-5.94-.28-3.14,.65-5.23,2.5-6.2,3.48-4.24,6.21-8.49,12.42-12.73,18.63-2.28-.53-5.14-1-8.46-1.07-2.78-.06-5.24,.17-7.28,.5"/></g><path class="cls-3" d="M197.43,152.03c-25.17-4.19-43.6-25.15-44.29-49.07-.61-21.12,12.72-40.89,31.69-47.94,24.34-9.04,54.73,4.02,66.76,32.09"/><path class="cls-3" d="M197.92,152.11c1.02,.03,2.55,.1,4.4,.22,0,0,2.96,.2,5.49,.48,25.34,2.81,37.73,21.61,37.73,21.61,12.39,18.8,5.71,39.62,4.85,42.14-.66,1.96-8.24,23.17-29.52,30.51-20.5,7.08-45.18-1.68-59.66-22.27"/></g><g><path class="cls-4" d="M146.58,331.13c-1.54,0-2.96-.22-4.27-.67-1.31-.44-2.44-1.07-3.4-1.89-.96-.82-1.69-1.76-2.2-2.84-.19-.38-.2-.74-.02-1.06,.18-.32,.49-.54,.92-.67,.34-.1,.67-.06,.99,.11,.32,.17,.57,.42,.74,.76,.36,.7,.89,1.32,1.58,1.87,.7,.55,1.52,.98,2.48,1.28s2.02,.45,3.17,.45c1.27,0,2.4-.21,3.38-.63,.98-.42,1.76-1.03,2.32-1.84,.56-.8,.85-1.78,.85-2.93,0-1.46-.54-2.72-1.62-3.78-1.08-1.06-2.77-1.73-5.08-2.02-2.81-.34-5-1.21-6.59-2.61s-2.38-3.13-2.38-5.17c0-1.46,.39-2.74,1.17-3.82,.78-1.08,1.85-1.91,3.22-2.5,1.37-.59,2.94-.88,4.72-.88,1.32,0,2.52,.21,3.6,.63,1.08,.42,2.02,.97,2.83,1.66,.8,.68,1.46,1.43,1.96,2.25,.24,.38,.32,.76,.23,1.12s-.29,.64-.63,.83c-.36,.17-.73,.19-1.1,.07s-.65-.35-.85-.68c-.36-.55-.81-1.07-1.35-1.57s-1.19-.88-1.96-1.17c-.77-.29-1.69-.44-2.77-.47-1.9,0-3.42,.4-4.57,1.21-1.15,.8-1.73,1.97-1.73,3.51,0,.82,.22,1.57,.65,2.25,.43,.68,1.15,1.27,2.14,1.76,1,.49,2.33,.86,4.01,1.1,3,.43,5.23,1.35,6.68,2.75,1.45,1.4,2.18,3.23,2.18,5.49,0,1.3-.23,2.45-.7,3.46-.47,1.01-1.13,1.85-1.98,2.54-.85,.68-1.85,1.21-2.99,1.57-1.14,.36-2.36,.54-3.65,.54Z"/><path class="cls-4" d="M160.15,314.21c-.36,0-.66-.11-.9-.34-.24-.23-.36-.51-.36-.85,0-.36,.12-.65,.36-.88,.24-.23,.54-.34,.9-.34h9.18c.36,0,.66,.11,.9,.34,.24,.23,.36,.52,.36,.88,0,.34-.12,.62-.36,.85-.24,.23-.54,.34-.9,.34h-9.18Zm8.96,16.56c-1.27,0-2.41-.3-3.4-.9-1-.6-1.78-1.42-2.36-2.47-.58-1.04-.86-2.24-.86-3.58v-17.6c0-.41,.13-.74,.38-1.01,.25-.26,.58-.4,.99-.4s.74,.13,1.01,.4c.26,.26,.4,.6,.4,1.01v17.6c0,1.22,.36,2.23,1.08,3.01,.72,.78,1.64,1.17,2.77,1.17h.97c.38,0,.7,.13,.94,.4,.24,.26,.36,.6,.36,1.01s-.14,.74-.43,.99c-.29,.25-.65,.38-1.08,.38h-.76Z"/><path class="cls-4" d="M184.56,330.95c-1.85,0-3.5-.44-4.97-1.31-1.46-.88-2.62-2.07-3.47-3.58-.85-1.51-1.28-3.22-1.28-5.11s.44-3.64,1.31-5.15c.88-1.51,2.07-2.71,3.58-3.58,1.51-.88,3.22-1.31,5.11-1.31s3.59,.44,5.09,1.31c1.5,.88,2.69,2.07,3.56,3.58,.88,1.51,1.33,3.23,1.35,5.15l-1.12,.86c0,1.73-.4,3.28-1.21,4.66s-1.9,2.47-3.28,3.28c-1.38,.8-2.95,1.21-4.7,1.21Zm.29-2.52c1.39,0,2.63-.32,3.73-.97,1.09-.65,1.96-1.54,2.59-2.68,.63-1.14,.95-2.42,.95-3.83s-.32-2.72-.95-3.85c-.64-1.13-1.5-2.02-2.59-2.68s-2.33-.99-3.73-.99-2.6,.33-3.71,.99c-1.1,.66-1.98,1.55-2.63,2.68-.65,1.13-.97,2.41-.97,3.85s.32,2.69,.97,3.83c.65,1.14,1.52,2.03,2.63,2.68,1.1,.65,2.34,.97,3.71,.97Zm8.6,2.34c-.41,0-.74-.13-1.01-.38-.26-.25-.4-.58-.4-.99v-6.16l.68-2.84,2.12,.54v8.46c0,.41-.13,.74-.4,.99-.26,.25-.6,.38-1.01,.38Z"/><path class="cls-4" d="M199,314.21c-.36,0-.66-.11-.9-.34-.24-.23-.36-.51-.36-.85,0-.36,.12-.65,.36-.88,.24-.23,.54-.34,.9-.34h9.18c.36,0,.66,.11,.9,.34,.24,.23,.36,.52,.36,.88,0,.34-.12,.62-.36,.85-.24,.23-.54,.34-.9,.34h-9.18Zm8.96,16.56c-1.27,0-2.41-.3-3.4-.9-1-.6-1.78-1.42-2.36-2.47-.58-1.04-.86-2.24-.86-3.58v-17.6c0-.41,.13-.74,.38-1.01,.25-.26,.58-.4,.99-.4s.74,.13,1.01,.4c.26,.26,.4,.6,.4,1.01v17.6c0,1.22,.36,2.23,1.08,3.01,.72,.78,1.64,1.17,2.77,1.17h.97c.38,0,.7,.13,.94,.4s.36,.6,.36,1.01-.14,.74-.43,.99-.65,.38-1.08,.38h-.76Z"/><path class="cls-4" d="M216.67,307.33c-.53,0-.98-.19-1.37-.58-.38-.38-.58-.85-.58-1.4,0-.6,.2-1.07,.59-1.42,.4-.35,.86-.52,1.39-.52s.95,.17,1.35,.52c.4,.35,.59,.82,.59,1.42,0,.55-.19,1.02-.58,1.4-.38,.38-.85,.58-1.4,.58Zm.04,23.44c-.43,0-.77-.13-1.03-.38s-.38-.59-.38-1.03v-16.88c0-.43,.13-.77,.38-1.03s.59-.38,1.03-.38c.41,0,.74,.13,.99,.38s.38,.59,.38,1.03v16.88c0,.43-.13,.77-.38,1.03s-.58,.38-.99,.38Z"/><path class="cls-4" d="M234.1,330.95c-1.92,0-3.64-.43-5.15-1.3-1.51-.86-2.7-2.05-3.56-3.56-.86-1.51-1.3-3.23-1.3-5.15s.43-3.67,1.3-5.18c.86-1.51,2.05-2.7,3.56-3.56,1.51-.86,3.23-1.3,5.15-1.3s3.63,.43,5.13,1.3,2.68,2.05,3.55,3.56c.86,1.51,1.31,3.24,1.33,5.18,0,1.92-.44,3.64-1.31,5.15-.88,1.51-2.06,2.7-3.56,3.56s-3.21,1.3-5.13,1.3Zm0-2.52c1.39,0,2.64-.32,3.74-.97,1.1-.65,1.97-1.54,2.59-2.66,.62-1.13,.94-2.41,.94-3.85s-.31-2.73-.94-3.87c-.62-1.14-1.49-2.03-2.59-2.68-1.1-.65-2.35-.97-3.74-.97s-2.64,.32-3.74,.97c-1.1,.65-1.97,1.54-2.61,2.68-.64,1.14-.95,2.43-.95,3.87s.32,2.72,.95,3.85c.64,1.13,1.51,2.02,2.61,2.66,1.1,.65,2.35,.97,3.74,.97Z"/><path class="cls-4" d="M250.91,330.77c-.43,0-.77-.13-1.03-.38s-.38-.58-.38-.99v-16.92c0-.43,.13-.77,.38-1.03s.59-.38,1.03-.38c.41,0,.74,.13,.99,.38s.38,.59,.38,1.03v16.92c0,.41-.13,.74-.38,.99s-.58,.38-.99,.38Zm15.48,0c-.41,0-.74-.13-1.01-.4-.26-.26-.4-.59-.4-.97v-9.36c0-1.49-.28-2.71-.85-3.67-.56-.96-1.33-1.68-2.3-2.16-.97-.48-2.07-.72-3.29-.72s-2.24,.23-3.19,.68c-.95,.46-1.7,1.08-2.25,1.87s-.83,1.69-.83,2.7h-1.98c.05-1.51,.46-2.86,1.22-4.05,.77-1.19,1.79-2.12,3.06-2.81,1.27-.68,2.69-1.03,4.25-1.03,1.7,0,3.23,.35,4.57,1.06,1.34,.71,2.41,1.75,3.19,3.11,.78,1.37,1.17,3.04,1.17,5v9.36c0,.38-.13,.71-.4,.97-.26,.26-.59,.4-.97,.4Z"/></g><g><path class="cls-1" d="M112.42,359.15c-1.54,0-2.96-.22-4.27-.67-1.31-.44-2.44-1.07-3.4-1.89-.96-.82-1.69-1.76-2.2-2.84-.19-.38-.2-.74-.02-1.06,.18-.32,.49-.55,.92-.67,.34-.1,.67-.06,.99,.11,.32,.17,.57,.42,.74,.76,.36,.7,.89,1.32,1.58,1.87,.7,.55,1.52,.98,2.48,1.28s2.02,.45,3.17,.45c1.27,0,2.4-.21,3.38-.63,.98-.42,1.76-1.03,2.32-1.84,.56-.8,.85-1.78,.85-2.93,0-1.46-.54-2.72-1.62-3.78-1.08-1.06-2.77-1.73-5.08-2.02-2.81-.34-5-1.21-6.59-2.61-1.58-1.4-2.38-3.12-2.38-5.17,0-1.46,.39-2.74,1.17-3.82s1.85-1.91,3.22-2.5,2.94-.88,4.72-.88c1.32,0,2.52,.21,3.6,.63s2.02,.97,2.83,1.66c.8,.68,1.46,1.43,1.96,2.25,.24,.38,.32,.76,.23,1.12-.08,.36-.29,.64-.63,.83-.36,.17-.73,.19-1.1,.07s-.65-.35-.85-.68c-.36-.55-.81-1.07-1.35-1.57s-1.19-.88-1.96-1.17c-.77-.29-1.69-.44-2.77-.47-1.9,0-3.42,.4-4.57,1.21-1.15,.8-1.73,1.97-1.73,3.51,0,.82,.22,1.57,.65,2.25,.43,.68,1.15,1.27,2.14,1.76,1,.49,2.33,.86,4.01,1.1,3,.43,5.23,1.35,6.68,2.75,1.45,1.4,2.18,3.23,2.18,5.49,0,1.3-.23,2.45-.7,3.46-.47,1.01-1.13,1.85-1.98,2.54-.85,.68-1.85,1.21-2.99,1.57-1.14,.36-2.36,.54-3.65,.54Z"/><path class="cls-1" d="M135.82,359.01c-1.7,0-3.23-.35-4.57-1.06-1.34-.71-2.41-1.75-3.19-3.11s-1.17-3.04-1.17-5v-9.36c0-.38,.13-.71,.4-.97,.26-.26,.59-.4,.97-.4,.41,0,.74,.13,1.01,.4,.26,.26,.4,.59,.4,.97v9.36c0,1.49,.28,2.71,.85,3.67,.56,.96,1.33,1.68,2.3,2.16,.97,.48,2.07,.72,3.29,.72s2.24-.23,3.19-.68c.95-.46,1.7-1.08,2.25-1.87,.55-.79,.83-1.69,.83-2.7h1.98c-.07,1.51-.49,2.86-1.24,4.05-.76,1.19-1.77,2.12-3.04,2.81-1.27,.68-2.69,1.03-4.25,1.03Zm7.92-.22c-.41,0-.74-.13-.99-.38-.25-.25-.38-.59-.38-1.03v-16.92c0-.41,.13-.74,.38-.99,.25-.25,.58-.38,.99-.38s.74,.13,1.01,.38c.26,.25,.4,.58,.4,.99v16.92c0,.43-.13,.77-.4,1.03s-.6,.38-1.01,.38Z"/><path class="cls-1" d="M153.02,367.22c-.43,0-.77-.13-1.03-.38s-.38-.59-.38-1.03v-16.99c.02-1.87,.47-3.56,1.35-5.06,.88-1.5,2.06-2.68,3.56-3.55s3.19-1.3,5.06-1.3,3.64,.44,5.15,1.31c1.51,.88,2.71,2.07,3.58,3.58,.88,1.51,1.31,3.23,1.31,5.15s-.43,3.6-1.28,5.11c-.85,1.51-2.01,2.71-3.47,3.58s-3.12,1.31-4.97,1.31c-1.61,0-3.07-.34-4.37-1.03-1.31-.68-2.36-1.59-3.15-2.72v10.58c0,.43-.13,.77-.38,1.03-.25,.25-.58,.38-.99,.38Zm8.57-10.76c1.39,0,2.64-.32,3.74-.97,1.1-.65,1.97-1.54,2.61-2.68,.64-1.14,.95-2.42,.95-3.83s-.32-2.72-.95-3.85c-.64-1.13-1.51-2.02-2.61-2.68-1.1-.66-2.35-.99-3.74-.99s-2.6,.33-3.71,.99c-1.1,.66-1.97,1.55-2.59,2.68-.62,1.13-.94,2.41-.94,3.85s.31,2.69,.94,3.83c.62,1.14,1.49,2.03,2.59,2.68,1.1,.65,2.34,.97,3.71,.97Z"/><path class="cls-1" d="M186,358.97c-1.94,0-3.67-.43-5.17-1.28-1.5-.85-2.68-2.03-3.53-3.55-.85-1.51-1.28-3.24-1.28-5.18s.4-3.7,1.21-5.2c.8-1.5,1.91-2.68,3.33-3.55,1.42-.86,3.05-1.3,4.9-1.3s3.41,.41,4.77,1.24c1.36,.83,2.41,1.97,3.15,3.44,.74,1.46,1.12,3.13,1.12,5,0,.38-.12,.69-.36,.92-.24,.23-.55,.34-.94,.34h-15.3v-2.3h15.59l-1.55,1.12c.02-1.39-.23-2.64-.76-3.74-.53-1.1-1.28-1.97-2.25-2.59-.97-.62-2.13-.94-3.47-.94s-2.57,.32-3.6,.97c-1.03,.65-1.83,1.54-2.39,2.68-.56,1.14-.85,2.44-.85,3.91s.32,2.76,.95,3.89c.64,1.13,1.51,2.02,2.61,2.66,1.1,.65,2.38,.97,3.82,.97,.86,0,1.73-.15,2.61-.45s1.58-.68,2.11-1.13c.26-.22,.56-.33,.9-.34,.34-.01,.62,.08,.86,.27,.31,.29,.47,.6,.49,.94,.01,.34-.13,.62-.41,.86-.79,.67-1.8,1.23-3.02,1.67-1.22,.44-2.4,.67-3.53,.67Z"/><path class="cls-1" d="M200.54,358.79c-.43,0-.77-.12-1.01-.36-.24-.24-.36-.58-.36-1.01v-16.96c0-.43,.12-.77,.36-1.01,.24-.24,.58-.36,1.01-.36s.77,.12,1.01,.36c.24,.24,.36,.58,.36,1.01v16.96c0,.43-.12,.77-.36,1.01s-.58,.36-1.01,.36Zm-.22-12.13c.07-1.49,.46-2.82,1.17-4,.71-1.18,1.63-2.1,2.77-2.77,1.14-.67,2.41-1.01,3.8-1.01,1.1,0,1.96,.16,2.56,.47,.6,.31,.83,.77,.68,1.37-.1,.36-.26,.6-.49,.72-.23,.12-.5,.17-.83,.14-.32-.02-.69-.05-1.1-.07-1.34-.12-2.54,.02-3.58,.41-1.04,.4-1.87,1-2.48,1.82-.61,.82-.92,1.79-.92,2.92h-1.58Z"/><path class="cls-1" d="M222.4,358.79c-.58,0-1.01-.31-1.3-.94l-7.99-16.96c-.14-.31-.16-.62-.04-.94,.12-.31,.36-.55,.72-.72,.34-.17,.66-.19,.97-.07,.31,.12,.55,.34,.72,.65l7.67,16.6h-1.48l7.56-16.6c.14-.34,.39-.56,.74-.67,.35-.11,.69-.09,1.03,.05,.34,.17,.56,.41,.68,.74,.12,.32,.11,.63-.04,.92l-7.88,16.99c-.29,.62-.74,.94-1.37,.94Z"/><path class="cls-1" d="M237.51,335.36c-.53,0-.98-.19-1.37-.58-.38-.38-.58-.85-.58-1.4,0-.6,.2-1.07,.59-1.42,.4-.35,.86-.52,1.39-.52s.95,.17,1.35,.52c.4,.35,.59,.82,.59,1.42,0,.55-.19,1.02-.58,1.4s-.85,.58-1.4,.58Zm.04,23.44c-.43,0-.77-.13-1.03-.38s-.38-.59-.38-1.03v-16.88c0-.43,.13-.77,.38-1.03,.25-.25,.59-.38,1.03-.38,.41,0,.74,.13,.99,.38,.25,.25,.38,.59,.38,1.03v16.88c0,.43-.13,.77-.38,1.03s-.58,.38-.99,.38Z"/><path class="cls-1" d="M252.85,358.97c-1.42,0-2.82-.24-4.21-.72-1.39-.48-2.52-1.2-3.38-2.16-.26-.29-.37-.61-.32-.97,.05-.36,.23-.67,.54-.94,.34-.24,.68-.33,1.04-.29,.36,.05,.66,.21,.9,.47,.58,.67,1.34,1.19,2.29,1.55s2,.54,3.15,.54c1.78,0,3.06-.31,3.85-.92,.79-.61,1.2-1.35,1.22-2.21,0-.86-.41-1.58-1.22-2.14-.82-.56-2.16-1-4.03-1.31-2.42-.38-4.2-1.06-5.33-2.02-1.13-.96-1.69-2.1-1.69-3.42,0-1.22,.32-2.24,.97-3.06,.65-.82,1.51-1.43,2.59-1.84,1.08-.41,2.27-.61,3.56-.61,1.61,0,2.99,.28,4.16,.83,1.16,.55,2.11,1.3,2.83,2.23,.24,.31,.34,.64,.29,.97-.05,.34-.24,.61-.58,.83-.29,.17-.62,.22-.99,.16s-.69-.23-.95-.52c-.6-.7-1.3-1.21-2.09-1.53-.79-.32-1.7-.49-2.74-.49-1.32,0-2.38,.27-3.17,.81s-1.19,1.22-1.19,2.03c0,.55,.15,1.03,.45,1.44,.3,.41,.82,.77,1.55,1.08,.73,.31,1.76,.58,3.08,.79,1.8,.29,3.22,.71,4.27,1.28,1.04,.56,1.79,1.22,2.23,1.98,.44,.76,.67,1.58,.67,2.47,0,1.13-.33,2.12-.99,2.97-.66,.85-1.57,1.52-2.74,2-1.16,.48-2.5,.72-4.01,.72Z"/><path class="cls-1" d="M274.34,358.97c-1.92,0-3.64-.43-5.15-1.3-1.51-.86-2.7-2.05-3.56-3.56-.86-1.51-1.3-3.23-1.3-5.15s.43-3.67,1.3-5.18c.86-1.51,2.05-2.7,3.56-3.56,1.51-.86,3.23-1.3,5.15-1.3s3.63,.43,5.13,1.3,2.68,2.05,3.55,3.56c.86,1.51,1.31,3.24,1.33,5.18,0,1.92-.44,3.64-1.31,5.15-.88,1.51-2.06,2.7-3.56,3.56s-3.21,1.3-5.13,1.3Zm0-2.52c1.39,0,2.64-.32,3.74-.97,1.1-.65,1.97-1.54,2.59-2.66s.94-2.41,.94-3.85-.31-2.73-.94-3.87c-.62-1.14-1.49-2.03-2.59-2.68-1.1-.65-2.35-.97-3.74-.97s-2.64,.32-3.74,.97c-1.1,.65-1.97,1.54-2.61,2.68-.64,1.14-.95,2.43-.95,3.87s.32,2.72,.95,3.85,1.51,2.02,2.61,2.66c1.1,.65,2.35,.97,3.74,.97Z"/><path class="cls-1" d="M291.12,358.79c-.43,0-.77-.12-1.01-.36-.24-.24-.36-.58-.36-1.01v-16.96c0-.43,.12-.77,.36-1.01,.24-.24,.58-.36,1.01-.36s.77,.12,1.01,.36c.24,.24,.36,.58,.36,1.01v16.96c0,.43-.12,.77-.36,1.01s-.58,.36-1.01,.36Zm-.22-12.13c.07-1.49,.46-2.82,1.17-4s1.63-2.1,2.77-2.77c1.14-.67,2.41-1.01,3.8-1.01,1.1,0,1.96,.16,2.56,.47,.6,.31,.83,.77,.68,1.37-.1,.36-.26,.6-.49,.72s-.5,.17-.83,.14c-.32-.02-.69-.05-1.1-.07-1.34-.12-2.54,.02-3.58,.41-1.04,.4-1.87,1-2.48,1.82-.61,.82-.92,1.79-.92,2.92h-1.58Z"/></g></svg>