<svg width="472" height="368" viewBox="0 0 472 368" fill="none" xmlns="http://www.w3.org/2000/svg">
<g clip-path="url(#clip0_142_29)">
<path d="M275.79 116.03C276.18 113.46 276.47 110.4 276.43 106.95C276.4 103.98 276.14 101.3 275.79 99.01C282.1 94.44 288.41 89.88 294.72 85.31C295.72 84.34 297.6 82.23 298.33 79C298.86 76.65 298.54 74.76 298.21 72.85C297.67 69.71 296.66 67.65 295.18 64.61C292.93 60.02 291.15 58.27 289.53 57.32C289.42 57.25 289.32 57.2 289.3 57.19C286.88 55.86 284.54 55.92 282.75 56.07C280.05 56.3 272.01 57.3 261.18 59.28C259.93 57.22 258.28 54.85 256.12 52.4C253.81 49.78 251.51 47.77 249.54 46.25" stroke="white" stroke-width="10" stroke-linecap="round" stroke-linejoin="round"/>
<path d="M261.15 59.2C259.8 57.18 258.14 54.95 256.12 52.67C253.79 50.04 251.49 47.91 249.42 46.19C251.01 38.79 252.6 31.38 254.19 23.98C254.41 22.66 254.66 19.93 253.36 17.12C253.36 17.1 253.3 17 253.24 16.88C252.38 15.16 250.78 13.25 246.45 10.73C243.6 9.07 241.65 7.94 238.66 7.26C236.83 6.85 235.04 6.44 232.76 6.91C229.63 7.55 227.53 9.42 226.57 10.43C221.92 17.05 217.27 23.68 212.62 30.3C210.49 29.86 208.03 29.49 205.29 29.34C202.01 29.16 199.08 29.32 196.61 29.61" stroke="white" stroke-width="10" stroke-linecap="round" stroke-linejoin="round"/>
<path d="M212.55 30.04C210.29 29.63 207.66 29.3 204.72 29.21C201.65 29.12 198.89 29.3 196.53 29.6C190.46 19.32 185.58 12.04 183.89 9.78C182.51 7.94 180.95 6.37 178.65 5.53C178.63 5.53 178.53 5.49 178.4 5.44C176.63 4.85 174.19 4.68 169.42 6.07C166.27 6.99 164.13 7.62 161.55 9.34C159.98 10.39 158.43 11.42 157.13 13.43C155.34 16.18 155.13 19.05 155.13 20.47C156.28 28.05 157.43 35.64 158.58 43.22C156.61 44.85 154.51 46.76 152.35 49C150.09 51.34 148.16 53.64 146.54 55.77" stroke="white" stroke-width="10" stroke-linecap="round" stroke-linejoin="round"/>
<path d="M158.62 43.33C156.72 44.8 154.63 46.59 152.5 48.76C150.05 51.26 148.06 53.72 146.48 55.92C139.32 54.49 132.16 53.06 125 51.62C123.73 51.43 121.1 51.25 118.44 52.69C118.43 52.69 118.33 52.75 118.21 52.82C116.59 53.76 114.79 55.49 112.51 60.07C111 63.09 109.97 65.15 109.42 68.28C109.08 70.19 108.74 72.07 109.26 74.43C109.96 77.67 111.83 79.79 112.83 80.77C119.33 85.41 125.83 90.04 132.33 94.68C131.97 96.91 131.69 99.48 131.63 102.34C131.55 105.76 131.8 108.8 132.15 111.36" stroke="white" stroke-width="10" stroke-linecap="round" stroke-linejoin="round"/>
<path d="M132.33 94.69C132.02 97.19 131.79 100.01 131.75 103.1C131.71 106.19 131.87 109.02 132.12 111.53C122.58 117.91 115.84 123.04 113.72 124.86C111.93 126.39 110.51 128.06 109.76 130.41C109.76 130.43 109.72 130.54 109.68 130.67C109.16 132.53 109.05 135.07 110.5 140C111.46 143.25 112.11 145.47 113.83 148.11C114.88 149.72 115.91 151.31 117.86 152.61C120.55 154.4 123.31 154.56 124.67 154.53C131.98 153.03 139.28 151.52 146.59 150.02C147.84 152.06 149.56 154.47 151.87 156.92C153.81 158.97 155.72 160.58 157.39 161.81" stroke="white" stroke-width="10" stroke-linecap="round" stroke-linejoin="round"/>
<path d="M146.19 150.22C147.66 152.22 149.41 154.39 151.48 156.61C153.55 158.83 155.58 160.72 157.46 162.31C155.02 173.83 153.73 182.42 153.46 185.27C153.23 187.67 153.35 189.9 154.42 192.11C154.42 192.13 154.48 192.23 154.54 192.35C155.43 194.05 157.07 195.93 161.45 198.36C164.34 199.96 166.3 201.05 169.31 201.66C171.14 202.03 172.95 202.4 175.22 201.89C178.34 201.19 180.4 199.27 181.35 198.24C185.51 191.81 189.67 185.38 193.83 178.95C196.1 179.48 198.95 179.93 202.25 179.96C205.01 179.99 207.46 179.73 209.48 179.37" stroke="white" stroke-width="10" stroke-linecap="round" stroke-linejoin="round"/>
<path d="M128.67 190.59C128.28 193.09 127.99 196.06 128.03 199.42C128.06 202.31 128.32 204.91 128.68 207.14C122.33 211.58 115.98 216.01 109.64 220.45C108.63 221.39 106.74 223.44 106.01 226.58C105.48 228.87 105.8 230.7 106.13 232.56C106.67 235.61 107.69 237.62 109.18 240.56C111.45 245.02 113.23 246.72 114.86 247.65C114.98 247.72 115.07 247.77 115.09 247.78C117.52 249.07 119.88 249.02 121.68 248.87C124.39 248.65 132.48 247.67 143.37 245.75C144.62 247.75 146.29 250.06 148.45 252.43C150.78 254.97 153.08 256.93 155.07 258.41" stroke="white" stroke-width="10" stroke-linecap="round" stroke-linejoin="round"/>
<path d="M143.39 245.82C144.75 247.79 146.42 249.95 148.45 252.16C150.79 254.71 153.1 256.79 155.19 258.45C153.59 265.65 151.99 272.84 150.39 280.04C150.17 281.32 149.92 283.97 151.22 286.71C151.22 286.73 151.28 286.83 151.34 286.94C152.2 288.61 153.82 290.47 158.17 292.92C161.04 294.53 163 295.63 166.01 296.29C167.85 296.69 169.65 297.08 171.95 296.63C175.1 296.01 177.21 294.19 178.18 293.21C182.86 286.77 187.53 280.34 192.21 273.9C194.35 274.33 196.83 274.68 199.59 274.83C202.89 275.01 205.83 274.85 208.32 274.57" stroke="white" stroke-width="10" stroke-linecap="round" stroke-linejoin="round"/>
<path d="M192.27 274.17C194.54 274.57 197.19 274.89 200.14 274.98C203.23 275.07 206 274.89 208.37 274.6C214.47 284.59 219.38 291.67 221.09 293.86C222.48 295.65 224.05 297.17 226.36 297.99C226.38 297.99 226.48 298.03 226.61 298.07C228.39 298.64 230.84 298.81 235.64 297.46C238.81 296.56 240.96 295.96 243.56 294.28C245.14 293.26 246.7 292.26 248.01 290.31C249.81 287.64 250.02 284.85 250.02 283.47C248.86 276.1 247.71 268.73 246.55 261.36C248.53 259.78 250.65 257.92 252.82 255.75C255.09 253.47 257.03 251.24 258.66 249.17" stroke="white" stroke-width="10" stroke-linecap="round" stroke-linejoin="round"/>
<path d="M246.51 261.25C248.42 259.82 250.52 258.08 252.66 255.97C255.13 253.54 257.12 251.15 258.71 249.01C265.91 250.4 273.11 251.79 280.31 253.19C281.59 253.37 284.23 253.55 286.91 252.15C286.92 252.15 287.02 252.09 287.14 252.03C288.77 251.11 290.58 249.43 292.87 244.99C294.39 242.06 295.42 240.06 295.98 237.01C296.32 235.15 296.66 233.32 296.14 231.03C295.43 227.88 293.55 225.82 292.55 224.87C286.01 220.36 279.47 215.86 272.93 211.35C273.29 209.19 273.57 206.69 273.64 203.91C273.72 200.59 273.47 197.63 273.11 195.15" stroke="white" stroke-width="10" stroke-linecap="round" stroke-linejoin="round"/>
<path d="M272.95 211.33C273.27 208.9 273.49 206.16 273.53 203.15C273.57 200.14 273.41 197.39 273.16 194.95C282.75 188.75 289.53 183.76 291.67 181.99C293.47 180.5 294.9 178.88 295.65 176.59C295.65 176.57 295.69 176.47 295.73 176.34C296.26 174.53 296.37 172.06 294.91 167.27C293.94 164.11 293.29 161.95 291.56 159.39C290.51 157.82 289.47 156.28 287.51 155.01C284.81 153.27 282.03 153.12 280.66 153.15C273.31 154.61 265.96 156.07 258.61 157.53C257.35 155.55 255.62 153.2 253.3 150.82C251.35 148.82 249.43 147.27 247.74 146.06" stroke="white" stroke-width="10" stroke-linecap="round" stroke-linejoin="round"/>
<path d="M258.85 157.24C257.39 155.28 255.65 153.16 253.59 150.98C251.53 148.8 249.51 146.94 247.63 145.38C250.19 134.21 251.57 125.87 251.88 123.11C252.14 120.78 252.03 118.62 250.98 116.45C250.98 116.44 250.92 116.33 250.86 116.22C249.98 114.56 248.35 112.71 243.97 110.31C241.08 108.73 239.12 107.65 236.1 107.02C234.26 106.64 232.45 106.26 230.16 106.74C227.02 107.39 224.93 109.24 223.96 110.22C219.72 116.43 215.47 122.64 211.23 128.85C208.95 128.32 206.09 127.85 202.77 127.78C199.99 127.72 197.53 127.95 195.49 128.28" stroke="white" stroke-width="10" stroke-linecap="round" stroke-linejoin="round"/>
<path d="M197.43 152.03C172.26 147.84 153.83 126.88 153.14 102.96C152.53 81.84 165.86 62.07 184.83 55.02C209.17 45.98 239.56 59.04 251.59 87.11" stroke="#77EA97" stroke-width="10" stroke-linecap="round" stroke-linejoin="round"/>
<path d="M197.92 152.11C198.94 152.14 200.47 152.21 202.32 152.33C202.32 152.33 205.28 152.53 207.81 152.81C233.15 155.62 245.54 174.42 245.54 174.42C257.93 193.22 251.25 214.04 250.39 216.56C249.73 218.52 242.15 239.73 220.87 247.07C200.37 254.15 175.69 245.39 161.21 224.8" stroke="#77EA97" stroke-width="10" stroke-linecap="round" stroke-linejoin="round"/>
<path d="M146.58 331.13C145.04 331.13 143.62 330.91 142.31 330.46C141 330.02 139.87 329.39 138.91 328.57C137.95 327.75 137.22 326.81 136.71 325.73C136.52 325.35 136.51 324.99 136.69 324.67C136.87 324.35 137.18 324.13 137.61 324C137.95 323.9 138.28 323.94 138.6 324.11C138.92 324.28 139.17 324.53 139.34 324.87C139.7 325.57 140.23 326.19 140.92 326.74C141.62 327.29 142.44 327.72 143.4 328.02C144.36 328.32 145.42 328.47 146.57 328.47C147.84 328.47 148.97 328.26 149.95 327.84C150.93 327.42 151.71 326.81 152.27 326C152.83 325.2 153.12 324.22 153.12 323.07C153.12 321.61 152.58 320.35 151.5 319.29C150.42 318.23 148.73 317.56 146.42 317.27C143.61 316.93 141.42 316.06 139.83 314.66C138.24 313.26 137.45 311.53 137.45 309.49C137.45 308.03 137.84 306.75 138.62 305.67C139.4 304.59 140.47 303.76 141.84 303.17C143.21 302.58 144.78 302.29 146.56 302.29C147.88 302.29 149.08 302.5 150.16 302.92C151.24 303.34 152.18 303.89 152.99 304.58C153.79 305.26 154.45 306.01 154.95 306.83C155.19 307.21 155.27 307.59 155.18 307.95C155.09 308.31 154.89 308.59 154.55 308.78C154.19 308.95 153.82 308.97 153.45 308.85C153.08 308.73 152.8 308.5 152.6 308.17C152.24 307.62 151.79 307.1 151.25 306.6C150.71 306.1 150.06 305.72 149.29 305.43C148.52 305.14 147.6 304.99 146.52 304.96C144.62 304.96 143.1 305.36 141.95 306.17C140.8 306.97 140.22 308.14 140.22 309.68C140.22 310.5 140.44 311.25 140.87 311.93C141.3 312.61 142.02 313.2 143.01 313.69C144.01 314.18 145.34 314.55 147.02 314.79C150.02 315.22 152.25 316.14 153.7 317.54C155.15 318.94 155.88 320.77 155.88 323.03C155.88 324.33 155.65 325.48 155.18 326.49C154.71 327.5 154.05 328.34 153.2 329.03C152.35 329.71 151.35 330.24 150.21 330.6C149.07 330.96 147.85 331.14 146.56 331.14L146.58 331.13Z" fill="#77EA97"/>
<path d="M160.15 314.21C159.79 314.21 159.49 314.1 159.25 313.87C159.01 313.64 158.89 313.36 158.89 313.02C158.89 312.66 159.01 312.37 159.25 312.14C159.49 311.91 159.79 311.8 160.15 311.8H169.33C169.69 311.8 169.99 311.91 170.23 312.14C170.47 312.37 170.59 312.66 170.59 313.02C170.59 313.36 170.47 313.64 170.23 313.87C169.99 314.1 169.69 314.21 169.33 314.21H160.15ZM169.11 330.77C167.84 330.77 166.7 330.47 165.71 329.87C164.71 329.27 163.93 328.45 163.35 327.4C162.77 326.36 162.49 325.16 162.49 323.82V306.22C162.49 305.81 162.62 305.48 162.87 305.21C163.12 304.95 163.45 304.81 163.86 304.81C164.27 304.81 164.6 304.94 164.87 305.21C165.13 305.47 165.27 305.81 165.27 306.22V323.82C165.27 325.04 165.63 326.05 166.35 326.83C167.07 327.61 167.99 328 169.12 328H170.09C170.47 328 170.79 328.13 171.03 328.4C171.27 328.66 171.39 329 171.39 329.41C171.39 329.82 171.25 330.15 170.96 330.4C170.67 330.65 170.31 330.78 169.88 330.78H169.12L169.11 330.77Z" fill="#77EA97"/>
<path d="M184.56 330.95C182.71 330.95 181.06 330.51 179.59 329.64C178.13 328.76 176.97 327.57 176.12 326.06C175.27 324.55 174.84 322.84 174.84 320.95C174.84 319.06 175.28 317.31 176.15 315.8C177.03 314.29 178.22 313.09 179.73 312.22C181.24 311.34 182.95 310.91 184.84 310.91C186.73 310.91 188.43 311.35 189.93 312.22C191.43 313.1 192.62 314.29 193.49 315.8C194.37 317.31 194.82 319.03 194.84 320.95L193.72 321.81C193.72 323.54 193.32 325.09 192.51 326.47C191.7 327.85 190.61 328.94 189.23 329.75C187.85 330.55 186.28 330.96 184.53 330.96L184.56 330.95ZM184.85 328.43C186.24 328.43 187.48 328.11 188.58 327.46C189.67 326.81 190.54 325.92 191.17 324.78C191.8 323.64 192.12 322.36 192.12 320.95C192.12 319.54 191.8 318.23 191.17 317.1C190.53 315.97 189.67 315.08 188.58 314.42C187.49 313.76 186.25 313.43 184.85 313.43C183.45 313.43 182.25 313.76 181.14 314.42C180.04 315.08 179.16 315.97 178.51 317.1C177.86 318.23 177.54 319.51 177.54 320.95C177.54 322.39 177.86 323.64 178.51 324.78C179.16 325.92 180.03 326.81 181.14 327.46C182.24 328.11 183.48 328.43 184.85 328.43ZM193.45 330.77C193.04 330.77 192.71 330.64 192.44 330.39C192.18 330.14 192.04 329.81 192.04 329.4V323.24L192.72 320.4L194.84 320.94V329.4C194.84 329.81 194.71 330.14 194.44 330.39C194.18 330.64 193.84 330.77 193.43 330.77H193.45Z" fill="#77EA97"/>
<path d="M199 314.21C198.64 314.21 198.34 314.1 198.1 313.87C197.86 313.64 197.74 313.36 197.74 313.02C197.74 312.66 197.86 312.37 198.1 312.14C198.34 311.91 198.64 311.8 199 311.8H208.18C208.54 311.8 208.84 311.91 209.08 312.14C209.32 312.37 209.44 312.66 209.44 313.02C209.44 313.36 209.32 313.64 209.08 313.87C208.84 314.1 208.54 314.21 208.18 314.21H199ZM207.96 330.77C206.69 330.77 205.55 330.47 204.56 329.87C203.56 329.27 202.78 328.45 202.2 327.4C201.62 326.36 201.34 325.16 201.34 323.82V306.22C201.34 305.81 201.47 305.48 201.72 305.21C201.97 304.95 202.3 304.81 202.71 304.81C203.12 304.81 203.45 304.94 203.72 305.21C203.98 305.47 204.12 305.81 204.12 306.22V323.82C204.12 325.04 204.48 326.05 205.2 326.83C205.92 327.61 206.84 328 207.97 328H208.94C209.32 328 209.64 328.13 209.88 328.4C210.12 328.67 210.24 329 210.24 329.41C210.24 329.82 210.1 330.15 209.81 330.4C209.52 330.65 209.16 330.78 208.73 330.78H207.97L207.96 330.77Z" fill="#77EA97"/>
<path d="M216.67 307.33C216.14 307.33 215.69 307.14 215.3 306.75C214.92 306.37 214.72 305.9 214.72 305.35C214.72 304.75 214.92 304.28 215.31 303.93C215.71 303.58 216.17 303.41 216.7 303.41C217.23 303.41 217.65 303.58 218.05 303.93C218.45 304.28 218.64 304.75 218.64 305.35C218.64 305.9 218.45 306.37 218.06 306.75C217.68 307.13 217.21 307.33 216.66 307.33H216.67ZM216.71 330.77C216.28 330.77 215.94 330.64 215.68 330.39C215.42 330.14 215.3 329.8 215.3 329.36V312.48C215.3 312.05 215.43 311.71 215.68 311.45C215.93 311.19 216.27 311.07 216.71 311.07C217.12 311.07 217.45 311.2 217.7 311.45C217.95 311.7 218.08 312.04 218.08 312.48V329.36C218.08 329.79 217.95 330.13 217.7 330.39C217.45 330.65 217.12 330.77 216.71 330.77Z" fill="#77EA97"/>
<path d="M234.1 330.95C232.18 330.95 230.46 330.52 228.95 329.65C227.44 328.79 226.25 327.6 225.39 326.09C224.53 324.58 224.09 322.86 224.09 320.94C224.09 319.02 224.52 317.27 225.39 315.76C226.25 314.25 227.44 313.06 228.95 312.2C230.46 311.34 232.18 310.9 234.1 310.9C236.02 310.9 237.73 311.33 239.23 312.2C240.73 313.07 241.91 314.25 242.78 315.76C243.64 317.27 244.09 319 244.11 320.94C244.11 322.86 243.67 324.58 242.8 326.09C241.92 327.6 240.74 328.79 239.24 329.65C237.74 330.51 236.03 330.95 234.11 330.95H234.1ZM234.1 328.43C235.49 328.43 236.74 328.11 237.84 327.46C238.94 326.81 239.81 325.92 240.43 324.8C241.05 323.67 241.37 322.39 241.37 320.95C241.37 319.51 241.06 318.22 240.43 317.08C239.81 315.94 238.94 315.05 237.84 314.4C236.74 313.75 235.49 313.43 234.1 313.43C232.71 313.43 231.46 313.75 230.36 314.4C229.26 315.05 228.39 315.94 227.75 317.08C227.11 318.22 226.8 319.51 226.8 320.95C226.8 322.39 227.12 323.67 227.75 324.8C228.39 325.93 229.26 326.82 230.36 327.46C231.46 328.11 232.71 328.43 234.1 328.43Z" fill="#77EA97"/>
<path d="M250.91 330.77C250.48 330.77 250.14 330.64 249.88 330.39C249.62 330.14 249.5 329.81 249.5 329.4V312.48C249.5 312.05 249.63 311.71 249.88 311.45C250.13 311.19 250.47 311.07 250.91 311.07C251.32 311.07 251.65 311.2 251.9 311.45C252.15 311.7 252.28 312.04 252.28 312.48V329.4C252.28 329.81 252.15 330.14 251.9 330.39C251.65 330.64 251.32 330.77 250.91 330.77ZM266.39 330.77C265.98 330.77 265.65 330.64 265.38 330.37C265.12 330.11 264.98 329.78 264.98 329.4V320.04C264.98 318.55 264.7 317.33 264.13 316.37C263.57 315.41 262.8 314.69 261.83 314.21C260.86 313.73 259.76 313.49 258.54 313.49C257.32 313.49 256.3 313.72 255.35 314.17C254.4 314.63 253.65 315.25 253.1 316.04C252.55 316.83 252.27 317.73 252.27 318.74H250.29C250.34 317.23 250.75 315.88 251.51 314.69C252.28 313.5 253.3 312.57 254.57 311.88C255.84 311.2 257.26 310.85 258.82 310.85C260.52 310.85 262.05 311.2 263.39 311.91C264.73 312.62 265.8 313.66 266.58 315.02C267.36 316.39 267.75 318.06 267.75 320.02V329.38C267.75 329.76 267.62 330.09 267.35 330.35C267.09 330.61 266.76 330.75 266.38 330.75L266.39 330.77Z" fill="#77EA97"/>
<path d="M112.42 359.15C110.88 359.15 109.46 358.93 108.15 358.48C106.84 358.04 105.71 357.41 104.75 356.59C103.79 355.77 103.06 354.83 102.55 353.75C102.36 353.37 102.35 353.01 102.53 352.69C102.71 352.37 103.02 352.14 103.45 352.02C103.79 351.92 104.12 351.96 104.44 352.13C104.76 352.3 105.01 352.55 105.18 352.89C105.54 353.59 106.07 354.21 106.76 354.76C107.46 355.31 108.28 355.74 109.24 356.04C110.2 356.34 111.26 356.49 112.41 356.49C113.68 356.49 114.81 356.28 115.79 355.86C116.77 355.44 117.55 354.83 118.11 354.02C118.67 353.22 118.96 352.24 118.96 351.09C118.96 349.63 118.42 348.37 117.34 347.31C116.26 346.25 114.57 345.58 112.26 345.29C109.45 344.95 107.26 344.08 105.67 342.68C104.09 341.28 103.29 339.56 103.29 337.51C103.29 336.05 103.68 334.77 104.46 333.69C105.24 332.61 106.31 331.78 107.68 331.19C109.05 330.6 110.62 330.31 112.4 330.31C113.72 330.31 114.92 330.52 116 330.94C117.08 331.36 118.02 331.91 118.83 332.6C119.63 333.28 120.29 334.03 120.79 334.85C121.03 335.23 121.11 335.61 121.02 335.97C120.94 336.33 120.73 336.61 120.39 336.8C120.03 336.97 119.66 336.99 119.29 336.87C118.92 336.75 118.64 336.52 118.44 336.19C118.08 335.64 117.63 335.12 117.09 334.62C116.55 334.12 115.9 333.74 115.13 333.45C114.36 333.16 113.44 333.01 112.36 332.98C110.46 332.98 108.94 333.38 107.79 334.19C106.64 334.99 106.06 336.16 106.06 337.7C106.06 338.52 106.28 339.27 106.71 339.95C107.14 340.63 107.86 341.22 108.85 341.71C109.85 342.2 111.18 342.57 112.86 342.81C115.86 343.24 118.09 344.16 119.54 345.56C120.99 346.96 121.72 348.79 121.72 351.05C121.72 352.35 121.49 353.5 121.02 354.51C120.55 355.52 119.89 356.36 119.04 357.05C118.19 357.73 117.19 358.26 116.05 358.62C114.91 358.98 113.69 359.16 112.4 359.16L112.42 359.15Z" fill="white"/>
<path d="M135.82 359.01C134.12 359.01 132.59 358.66 131.25 357.95C129.91 357.24 128.84 356.2 128.06 354.84C127.28 353.48 126.89 351.8 126.89 349.84V340.48C126.89 340.1 127.02 339.77 127.29 339.51C127.55 339.25 127.88 339.11 128.26 339.11C128.67 339.11 129 339.24 129.27 339.51C129.53 339.77 129.67 340.1 129.67 340.48V349.84C129.67 351.33 129.95 352.55 130.52 353.51C131.08 354.47 131.85 355.19 132.82 355.67C133.79 356.15 134.89 356.39 136.11 356.39C137.33 356.39 138.35 356.16 139.3 355.71C140.25 355.25 141 354.63 141.55 353.84C142.1 353.05 142.38 352.15 142.38 351.14H144.36C144.29 352.65 143.87 354 143.12 355.19C142.36 356.38 141.35 357.31 140.08 358C138.81 358.68 137.39 359.03 135.83 359.03L135.82 359.01ZM143.74 358.79C143.33 358.79 143 358.66 142.75 358.41C142.5 358.16 142.37 357.82 142.37 357.38V340.46C142.37 340.05 142.5 339.72 142.75 339.47C143 339.22 143.33 339.09 143.74 339.09C144.15 339.09 144.48 339.22 144.75 339.47C145.01 339.72 145.15 340.05 145.15 340.46V357.38C145.15 357.81 145.02 358.15 144.75 358.41C144.48 358.67 144.15 358.79 143.74 358.79Z" fill="white"/>
<path d="M153.02 367.22C152.59 367.22 152.25 367.09 151.99 366.84C151.73 366.59 151.61 366.25 151.61 365.81V348.82C151.63 346.95 152.08 345.26 152.96 343.76C153.84 342.26 155.02 341.08 156.52 340.21C158.02 339.34 159.71 338.91 161.58 338.91C163.45 338.91 165.22 339.35 166.73 340.22C168.24 341.1 169.44 342.29 170.31 343.8C171.19 345.31 171.62 347.03 171.62 348.95C171.62 350.87 171.19 352.55 170.34 354.06C169.49 355.57 168.33 356.77 166.87 357.64C165.41 358.51 163.75 358.95 161.9 358.95C160.29 358.95 158.83 358.61 157.53 357.92C156.22 357.24 155.17 356.33 154.38 355.2V365.78C154.38 366.21 154.25 366.55 154 366.81C153.75 367.06 153.42 367.19 153.01 367.19L153.02 367.22ZM161.59 356.46C162.98 356.46 164.23 356.14 165.33 355.49C166.43 354.84 167.3 353.95 167.94 352.81C168.58 351.67 168.89 350.39 168.89 348.98C168.89 347.57 168.57 346.26 167.94 345.13C167.3 344 166.43 343.11 165.33 342.45C164.23 341.79 162.98 341.46 161.59 341.46C160.2 341.46 158.99 341.79 157.88 342.45C156.78 343.11 155.91 344 155.29 345.13C154.67 346.26 154.35 347.54 154.35 348.98C154.35 350.42 154.66 351.67 155.29 352.81C155.91 353.95 156.78 354.84 157.88 355.49C158.98 356.14 160.22 356.46 161.59 356.46Z" fill="white"/>
<path d="M186 358.97C184.06 358.97 182.33 358.54 180.83 357.69C179.33 356.84 178.15 355.66 177.3 354.14C176.45 352.63 176.02 350.9 176.02 348.96C176.02 347.02 176.42 345.26 177.23 343.76C178.03 342.26 179.14 341.08 180.56 340.21C181.98 339.35 183.61 338.91 185.46 338.91C187.31 338.91 188.87 339.32 190.23 340.15C191.59 340.98 192.64 342.12 193.38 343.59C194.12 345.05 194.5 346.72 194.5 348.59C194.5 348.97 194.38 349.28 194.14 349.51C193.9 349.74 193.59 349.85 193.2 349.85H177.9V347.55H193.49L191.94 348.67C191.96 347.28 191.71 346.03 191.18 344.93C190.65 343.83 189.9 342.96 188.93 342.34C187.96 341.72 186.8 341.4 185.46 341.4C184.12 341.4 182.89 341.72 181.86 342.37C180.83 343.02 180.03 343.91 179.47 345.05C178.91 346.19 178.62 347.49 178.62 348.96C178.62 350.43 178.94 351.72 179.57 352.85C180.21 353.98 181.08 354.87 182.18 355.51C183.28 356.16 184.56 356.48 186 356.48C186.86 356.48 187.73 356.33 188.61 356.03C189.49 355.73 190.19 355.35 190.72 354.9C190.98 354.68 191.28 354.57 191.62 354.56C191.96 354.55 192.24 354.64 192.48 354.83C192.79 355.12 192.95 355.43 192.97 355.77C192.98 356.11 192.84 356.39 192.56 356.63C191.77 357.3 190.76 357.86 189.54 358.3C188.32 358.74 187.14 358.97 186.01 358.97H186Z" fill="white"/>
<path d="M200.54 358.79C200.11 358.79 199.77 358.67 199.53 358.43C199.29 358.19 199.17 357.85 199.17 357.42V340.46C199.17 340.03 199.29 339.69 199.53 339.45C199.77 339.21 200.11 339.09 200.54 339.09C200.97 339.09 201.31 339.21 201.55 339.45C201.79 339.69 201.91 340.03 201.91 340.46V357.42C201.91 357.85 201.79 358.19 201.55 358.43C201.31 358.67 200.97 358.79 200.54 358.79ZM200.32 346.66C200.39 345.17 200.78 343.84 201.49 342.66C202.2 341.48 203.12 340.56 204.26 339.89C205.4 339.22 206.67 338.88 208.06 338.88C209.16 338.88 210.02 339.04 210.62 339.35C211.22 339.66 211.45 340.12 211.3 340.72C211.2 341.08 211.04 341.32 210.81 341.44C210.58 341.56 210.31 341.61 209.98 341.58C209.66 341.56 209.29 341.53 208.88 341.51C207.54 341.39 206.34 341.53 205.3 341.92C204.26 342.32 203.43 342.92 202.82 343.74C202.21 344.56 201.9 345.53 201.9 346.66H200.32V346.66Z" fill="white"/>
<path d="M222.4 358.79C221.82 358.79 221.39 358.48 221.1 357.85L213.11 340.89C212.97 340.58 212.95 340.27 213.07 339.95C213.19 339.64 213.43 339.4 213.79 339.23C214.13 339.06 214.45 339.04 214.76 339.16C215.07 339.28 215.31 339.5 215.48 339.81L223.15 356.41H221.67L229.23 339.81C229.37 339.47 229.62 339.25 229.97 339.14C230.32 339.03 230.66 339.05 231 339.19C231.34 339.36 231.56 339.6 231.68 339.93C231.8 340.25 231.79 340.56 231.64 340.85L223.76 357.84C223.47 358.46 223.02 358.78 222.39 358.78L222.4 358.79Z" fill="white"/>
<path d="M237.51 335.36C236.98 335.36 236.53 335.17 236.14 334.78C235.76 334.4 235.56 333.93 235.56 333.38C235.56 332.78 235.76 332.31 236.15 331.96C236.55 331.61 237.01 331.44 237.54 331.44C238.07 331.44 238.49 331.61 238.89 331.96C239.29 332.31 239.48 332.78 239.48 333.38C239.48 333.93 239.29 334.4 238.9 334.78C238.51 335.16 238.05 335.36 237.5 335.36H237.51ZM237.55 358.8C237.12 358.8 236.78 358.67 236.52 358.42C236.26 358.17 236.14 357.83 236.14 357.39V340.51C236.14 340.08 236.27 339.74 236.52 339.48C236.77 339.23 237.11 339.1 237.55 339.1C237.96 339.1 238.29 339.23 238.54 339.48C238.79 339.73 238.92 340.07 238.92 340.51V357.39C238.92 357.82 238.79 358.16 238.54 358.42C238.29 358.68 237.96 358.8 237.55 358.8Z" fill="white"/>
<path d="M252.85 358.97C251.43 358.97 250.03 358.73 248.64 358.25C247.25 357.77 246.12 357.05 245.26 356.09C245 355.8 244.89 355.48 244.94 355.12C244.99 354.76 245.17 354.45 245.48 354.18C245.82 353.94 246.16 353.85 246.52 353.89C246.88 353.94 247.18 354.1 247.42 354.36C248 355.03 248.76 355.55 249.71 355.91C250.66 356.27 251.71 356.45 252.86 356.45C254.64 356.45 255.92 356.14 256.71 355.53C257.5 354.92 257.91 354.18 257.93 353.32C257.93 352.46 257.52 351.74 256.71 351.18C255.89 350.62 254.55 350.18 252.68 349.87C250.26 349.49 248.48 348.81 247.35 347.85C246.22 346.89 245.66 345.75 245.66 344.43C245.66 343.21 245.98 342.19 246.63 341.37C247.28 340.55 248.14 339.94 249.22 339.53C250.3 339.12 251.49 338.92 252.78 338.92C254.39 338.92 255.77 339.2 256.94 339.75C258.1 340.3 259.05 341.05 259.77 341.98C260.01 342.29 260.11 342.62 260.06 342.95C260.01 343.29 259.82 343.56 259.48 343.78C259.19 343.95 258.86 344 258.49 343.94C258.12 343.88 257.8 343.71 257.54 343.42C256.94 342.72 256.24 342.21 255.45 341.89C254.66 341.57 253.75 341.4 252.71 341.4C251.39 341.4 250.33 341.67 249.54 342.21C248.75 342.75 248.35 343.43 248.35 344.24C248.35 344.79 248.5 345.27 248.8 345.68C249.1 346.09 249.62 346.45 250.35 346.76C251.08 347.07 252.11 347.34 253.43 347.55C255.23 347.84 256.65 348.26 257.7 348.83C258.74 349.39 259.49 350.05 259.93 350.81C260.37 351.57 260.6 352.39 260.6 353.28C260.6 354.41 260.27 355.4 259.61 356.25C258.95 357.1 258.04 357.77 256.87 358.25C255.71 358.73 254.37 358.97 252.86 358.97H252.85Z" fill="white"/>
<path d="M274.34 358.97C272.42 358.97 270.7 358.54 269.19 357.67C267.68 356.81 266.49 355.62 265.63 354.11C264.77 352.6 264.33 350.88 264.33 348.96C264.33 347.04 264.76 345.29 265.63 343.78C266.49 342.27 267.68 341.08 269.19 340.22C270.7 339.36 272.42 338.92 274.34 338.92C276.26 338.92 277.97 339.35 279.47 340.22C280.97 341.09 282.15 342.27 283.02 343.78C283.88 345.29 284.33 347.02 284.35 348.96C284.35 350.88 283.91 352.6 283.04 354.11C282.16 355.62 280.98 356.81 279.48 357.67C277.98 358.53 276.27 358.97 274.35 358.97H274.34ZM274.34 356.45C275.73 356.45 276.98 356.13 278.08 355.48C279.18 354.83 280.05 353.94 280.67 352.82C281.29 351.7 281.61 350.41 281.61 348.97C281.61 347.53 281.3 346.24 280.67 345.1C280.05 343.96 279.18 343.07 278.08 342.42C276.98 341.77 275.73 341.45 274.34 341.45C272.95 341.45 271.7 341.77 270.6 342.42C269.5 343.07 268.63 343.96 267.99 345.1C267.35 346.24 267.04 347.53 267.04 348.97C267.04 350.41 267.36 351.69 267.99 352.82C268.62 353.95 269.5 354.84 270.6 355.48C271.7 356.13 272.95 356.45 274.34 356.45Z" fill="white"/>
<path d="M291.12 358.79C290.69 358.79 290.35 358.67 290.11 358.43C289.87 358.19 289.75 357.85 289.75 357.42V340.46C289.75 340.03 289.87 339.69 290.11 339.45C290.35 339.21 290.69 339.09 291.12 339.09C291.55 339.09 291.89 339.21 292.13 339.45C292.37 339.69 292.49 340.03 292.49 340.46V357.42C292.49 357.85 292.37 358.19 292.13 358.43C291.89 358.67 291.55 358.79 291.12 358.79ZM290.9 346.66C290.97 345.17 291.36 343.84 292.07 342.66C292.78 341.48 293.7 340.56 294.84 339.89C295.98 339.22 297.25 338.88 298.64 338.88C299.74 338.88 300.6 339.04 301.2 339.35C301.8 339.66 302.03 340.12 301.88 340.72C301.78 341.08 301.62 341.32 301.39 341.44C301.16 341.56 300.89 341.61 300.56 341.58C300.24 341.56 299.87 341.53 299.46 341.51C298.12 341.39 296.92 341.53 295.88 341.92C294.84 342.32 294.01 342.92 293.4 343.74C292.79 344.56 292.48 345.53 292.48 346.66H290.9V346.66Z" fill="white"/>
</g>
<defs>
<clipPath id="clip0_142_29">
<rect width="471.38" height="367.22" fill="white"/>
</clipPath>
</defs>
</svg>
