<?xml version="1.0" encoding="UTF-8"?><svg id="Calque_2" xmlns="http://www.w3.org/2000/svg" viewBox="0 0 466.95 162.69"><defs><style>.cls-1{fill:#fff;}.cls-2{stroke:#fff;}.cls-2,.cls-3{fill:none;stroke-linecap:round;stroke-linejoin:round;stroke-width:5px;}.cls-3{stroke:#89c58c;}.cls-4{fill:#89c58c;}</style></defs><g><path class="cls-4" d="M112.77,57.78c-.72,0-1.32-.23-1.8-.68-.48-.46-.72-1.02-.72-1.69,0-.72,.24-1.31,.72-1.76,.48-.46,1.08-.68,1.8-.68h18.36c.72,0,1.32,.23,1.8,.68,.48,.46,.72,1.04,.72,1.76,0,.67-.24,1.24-.72,1.69-.48,.46-1.08,.68-1.8,.68h-18.36Zm17.93,33.12c-2.54,0-4.81-.6-6.8-1.8-1.99-1.2-3.56-2.84-4.72-4.93-1.15-2.09-1.73-4.47-1.73-7.16V41.8c0-.82,.25-1.49,.76-2.02,.5-.53,1.16-.79,1.98-.79s1.49,.26,2.02,.79,.79,1.2,.79,2.02v35.21c0,2.45,.72,4.45,2.16,6.01s3.29,2.34,5.54,2.34h1.94c.77,0,1.39,.26,1.87,.79s.72,1.2,.72,2.02-.29,1.48-.86,1.98-1.3,.76-2.16,.76h-1.51Z"/><path class="cls-4" d="M161.59,91.26c-3.7,0-7.01-.88-9.94-2.63-2.93-1.75-5.24-4.14-6.95-7.16-1.7-3.02-2.56-6.43-2.56-10.22s.88-7.27,2.63-10.3c1.75-3.02,4.14-5.41,7.16-7.16s6.43-2.63,10.22-2.63,7.19,.88,10.19,2.63,5.38,4.14,7.13,7.16,2.65,6.46,2.7,10.3l-2.23,1.73c0,3.46-.8,6.56-2.41,9.32-1.61,2.76-3.79,4.94-6.55,6.55-2.76,1.61-5.89,2.41-9.4,2.41h0Zm.58-5.04c2.78,0,5.27-.65,7.45-1.94,2.18-1.3,3.91-3.08,5.18-5.36,1.27-2.28,1.91-4.83,1.91-7.67s-.64-5.45-1.91-7.7c-1.27-2.26-3-4.04-5.18-5.36s-4.67-1.98-7.45-1.98-5.21,.66-7.42,1.98c-2.21,1.32-3.96,3.11-5.26,5.36-1.3,2.26-1.94,4.82-1.94,7.7s.65,5.39,1.94,7.67c1.3,2.28,3.05,4.07,5.26,5.36,2.21,1.3,4.68,1.94,7.42,1.94Zm17.21,4.68c-.82,0-1.49-.25-2.02-.76-.53-.5-.79-1.16-.79-1.98v-12.31l1.37-5.69,4.25,1.08v16.92c0,.82-.26,1.48-.79,1.98s-1.2,.76-2.02,.76Z"/><path class="cls-4" d="M190.46,57.78c-.72,0-1.32-.23-1.8-.68-.48-.46-.72-1.02-.72-1.69,0-.72,.24-1.31,.72-1.76,.48-.46,1.08-.68,1.8-.68h18.36c.72,0,1.32,.23,1.8,.68,.48,.46,.72,1.04,.72,1.76,0,.67-.24,1.24-.72,1.69-.48,.46-1.08,.68-1.8,.68h-18.36Zm17.93,33.12c-2.54,0-4.81-.6-6.8-1.8s-3.56-2.84-4.72-4.93c-1.15-2.09-1.73-4.47-1.73-7.16V41.8c0-.82,.25-1.49,.76-2.02,.5-.53,1.16-.79,1.98-.79s1.49,.26,2.02,.79,.79,1.2,.79,2.02v35.21c0,2.45,.72,4.45,2.16,6.01s3.29,2.34,5.54,2.34h1.94c.77,0,1.39,.26,1.87,.79s.72,1.2,.72,2.02-.29,1.48-.86,1.98-1.3,.76-2.16,.76h-1.51Z"/><path class="cls-4" d="M225.81,44.02c-1.06,0-1.97-.38-2.74-1.15-.77-.77-1.15-1.7-1.15-2.81,0-1.2,.4-2.15,1.19-2.84,.79-.7,1.72-1.04,2.77-1.04s1.91,.35,2.7,1.04c.79,.7,1.19,1.64,1.19,2.84,0,1.1-.38,2.04-1.15,2.81-.77,.77-1.7,1.15-2.81,1.15h0Zm.07,46.87c-.86,0-1.55-.25-2.05-.76-.5-.5-.76-1.19-.76-2.05V54.31c0-.86,.25-1.55,.76-2.05,.5-.5,1.19-.76,2.05-.76s1.48,.25,1.98,.76,.76,1.19,.76,2.05v33.77c0,.86-.25,1.55-.76,2.05s-1.16,.76-1.98,.76Z"/><path class="cls-4" d="M260.66,91.26c-3.84,0-7.27-.86-10.3-2.59-3.02-1.73-5.4-4.1-7.13-7.13-1.73-3.02-2.59-6.46-2.59-10.3s.86-7.34,2.59-10.37c1.73-3.02,4.1-5.4,7.13-7.13,3.02-1.73,6.46-2.59,10.3-2.59s7.26,.86,10.26,2.59,5.36,4.1,7.09,7.13c1.73,3.02,2.62,6.48,2.66,10.37,0,3.84-.88,7.27-2.63,10.3-1.75,3.02-4.13,5.4-7.13,7.13-3,1.73-6.42,2.59-10.26,2.59h.01Zm0-5.04c2.78,0,5.28-.65,7.49-1.94,2.21-1.3,3.94-3.07,5.18-5.33,1.25-2.26,1.87-4.82,1.87-7.7s-.62-5.46-1.87-7.74-2.98-4.07-5.18-5.36c-2.21-1.3-4.7-1.94-7.49-1.94s-5.28,.65-7.49,1.94c-2.21,1.3-3.95,3.08-5.22,5.36s-1.91,4.86-1.91,7.74,.64,5.45,1.91,7.7c1.27,2.26,3.01,4.03,5.22,5.33s4.7,1.94,7.49,1.94Z"/><path class="cls-4" d="M294.28,90.9c-.86,0-1.55-.25-2.05-.76-.5-.5-.76-1.16-.76-1.98V54.32c0-.86,.25-1.55,.76-2.05,.5-.5,1.19-.76,2.05-.76s1.48,.25,1.98,.76,.76,1.19,.76,2.05v33.84c0,.82-.25,1.48-.76,1.98s-1.16,.76-1.98,.76Zm30.96,0c-.82,0-1.49-.26-2.02-.79s-.79-1.18-.79-1.94v-18.72c0-2.98-.56-5.42-1.69-7.34s-2.66-3.36-4.61-4.32c-1.94-.96-4.14-1.44-6.59-1.44s-4.48,.46-6.37,1.37c-1.9,.91-3.4,2.16-4.5,3.74s-1.66,3.38-1.66,5.4h-3.96c.1-3.02,.91-5.72,2.45-8.1s3.58-4.25,6.12-5.62,5.38-2.05,8.5-2.05c3.41,0,6.46,.71,9.14,2.12,2.69,1.42,4.81,3.49,6.37,6.23,1.56,2.74,2.34,6.07,2.34,10.01v18.72c0,.77-.26,1.42-.79,1.94s-1.18,.79-1.94,.79h0Z"/></g><g><path class="cls-1" d="M134.72,141.88c-3.41,0-6.46-.71-9.14-2.12-2.69-1.42-4.81-3.49-6.37-6.23-1.56-2.74-2.34-6.07-2.34-10.01v-18.72c0-.77,.26-1.42,.79-1.94,.53-.53,1.18-.79,1.94-.79,.82,0,1.49,.26,2.02,.79s.79,1.18,.79,1.94v18.72c0,2.98,.56,5.42,1.69,7.34,1.13,1.92,2.66,3.36,4.61,4.32,1.94,.96,4.14,1.44,6.59,1.44s4.48-.46,6.37-1.37c1.9-.91,3.4-2.16,4.5-3.74s1.66-3.38,1.66-5.4h3.96c-.14,3.02-.97,5.72-2.48,8.1s-3.54,4.25-6.08,5.62c-2.54,1.37-5.38,2.05-8.5,2.05h-.01Zm15.84-.43c-.82,0-1.48-.25-1.98-.76s-.76-1.19-.76-2.05v-33.84c0-.82,.25-1.48,.76-1.98s1.16-.76,1.98-.76,1.49,.25,2.02,.76c.53,.5,.79,1.16,.79,1.98v33.84c0,.86-.26,1.55-.79,2.05s-1.2,.76-2.02,.76Z"/><path class="cls-1" d="M169.14,158.3c-.86,0-1.55-.25-2.05-.76-.5-.5-.76-1.19-.76-2.05v-33.98c.05-3.74,.95-7.12,2.7-10.12s4.13-5.36,7.13-7.09,6.37-2.59,10.12-2.59,7.27,.88,10.3,2.63c3.02,1.75,5.41,4.14,7.16,7.16,1.75,3.02,2.63,6.46,2.63,10.3s-.85,7.2-2.56,10.22c-1.7,3.02-4.02,5.41-6.95,7.16s-6.24,2.63-9.94,2.63c-3.22,0-6.13-.68-8.75-2.05s-4.72-3.18-6.3-5.44v21.17c0,.86-.25,1.55-.76,2.05-.5,.5-1.16,.76-1.98,.76h0Zm17.14-21.53c2.78,0,5.28-.65,7.49-1.94,2.21-1.3,3.95-3.08,5.22-5.36s1.91-4.84,1.91-7.67-.64-5.45-1.91-7.7c-1.27-2.26-3.01-4.04-5.22-5.36s-4.71-1.98-7.49-1.98-5.21,.66-7.42,1.98c-2.21,1.32-3.94,3.11-5.18,5.36-1.25,2.26-1.87,4.82-1.87,7.7s.62,5.39,1.87,7.67,2.98,4.07,5.18,5.36c2.21,1.3,4.68,1.94,7.42,1.94Z"/><path class="cls-1" d="M235.09,141.81c-3.89,0-7.33-.85-10.33-2.56-3-1.7-5.35-4.07-7.06-7.09-1.7-3.02-2.56-6.48-2.56-10.37s.8-7.4,2.41-10.4,3.83-5.36,6.66-7.09,6.1-2.59,9.79-2.59,6.83,.83,9.54,2.48c2.71,1.66,4.81,3.95,6.3,6.88s2.23,6.26,2.23,10.01c0,.77-.24,1.38-.72,1.84s-1.1,.68-1.87,.68h-30.6v-4.61h31.18l-3.1,2.23c.05-2.78-.46-5.28-1.51-7.49-1.06-2.21-2.56-3.94-4.5-5.18-1.94-1.25-4.26-1.87-6.95-1.87s-5.14,.65-7.2,1.94c-2.06,1.3-3.66,3.08-4.79,5.36-1.13,2.28-1.69,4.88-1.69,7.81s.64,5.52,1.91,7.78,3.01,4.03,5.22,5.33,4.75,1.94,7.63,1.94c1.73,0,3.47-.3,5.22-.9s3.16-1.36,4.21-2.27c.53-.43,1.13-.66,1.8-.68s1.25,.16,1.73,.54c.62,.58,.95,1.2,.97,1.87,.02,.67-.25,1.25-.83,1.73-1.58,1.34-3.6,2.46-6.05,3.35s-4.8,1.33-7.06,1.33h.02Z"/><path class="cls-1" d="M264.18,141.45c-.86,0-1.54-.24-2.02-.72-.48-.48-.72-1.15-.72-2.02v-33.91c0-.86,.24-1.54,.72-2.02s1.15-.72,2.02-.72,1.54,.24,2.02,.72c.48,.48,.72,1.15,.72,2.02v33.91c0,.86-.24,1.54-.72,2.02s-1.15,.72-2.02,.72Zm-.43-24.26c.14-2.98,.92-5.64,2.34-7.99,1.42-2.35,3.26-4.2,5.54-5.54s4.81-2.02,7.6-2.02c2.21,0,3.91,.31,5.11,.94,1.2,.62,1.66,1.54,1.37,2.74-.19,.72-.52,1.2-.97,1.44-.46,.24-1.01,.34-1.66,.29s-1.38-.1-2.2-.14c-2.69-.24-5.08,.04-7.16,.83s-3.74,2-4.97,3.64c-1.22,1.63-1.84,3.58-1.84,5.83h-3.17v-.02Z"/><path class="cls-1" d="M307.88,141.45c-1.15,0-2.02-.62-2.59-1.87l-15.98-33.91c-.29-.62-.31-1.25-.07-1.87s.72-1.1,1.44-1.44c.67-.33,1.32-.38,1.94-.14s1.1,.67,1.44,1.3l15.34,33.19h-2.95l15.12-33.19c.29-.67,.78-1.12,1.48-1.33,.7-.22,1.38-.18,2.05,.11,.67,.34,1.13,.83,1.37,1.48s.22,1.26-.07,1.84l-15.77,33.98c-.58,1.25-1.49,1.87-2.74,1.87v-.02Z"/><path class="cls-1" d="M338.12,94.58c-1.06,0-1.97-.38-2.74-1.15-.77-.77-1.15-1.7-1.15-2.81,0-1.2,.4-2.15,1.19-2.84,.79-.7,1.72-1.04,2.77-1.04s1.91,.35,2.7,1.04c.79,.7,1.19,1.64,1.19,2.84,0,1.11-.38,2.04-1.15,2.81s-1.7,1.15-2.81,1.15h0Zm.07,46.87c-.86,0-1.55-.25-2.05-.76s-.76-1.19-.76-2.05v-33.77c0-.86,.25-1.55,.76-2.05s1.19-.76,2.05-.76,1.48,.25,1.98,.76,.76,1.19,.76,2.05v33.77c0,.86-.25,1.55-.76,2.05s-1.16,.76-1.98,.76Z"/><path class="cls-1" d="M368.79,141.81c-2.83,0-5.64-.48-8.42-1.44s-5.04-2.4-6.77-4.32c-.53-.58-.75-1.22-.65-1.94s.46-1.34,1.08-1.87c.67-.48,1.37-.67,2.09-.58,.72,.1,1.32,.41,1.8,.94,1.15,1.34,2.67,2.38,4.57,3.1s4,1.08,6.3,1.08c3.55,0,6.12-.61,7.7-1.84,1.58-1.22,2.4-2.7,2.45-4.43,0-1.73-.82-3.16-2.45-4.28s-4.32-2-8.06-2.63c-4.85-.77-8.4-2.11-10.66-4.03s-3.38-4.2-3.38-6.84c0-2.45,.65-4.49,1.94-6.12s3.02-2.86,5.18-3.67c2.16-.82,4.54-1.22,7.13-1.22,3.22,0,5.99,.55,8.32,1.66,2.33,1.1,4.21,2.59,5.65,4.46,.48,.62,.67,1.27,.58,1.94-.1,.67-.48,1.22-1.15,1.66-.58,.34-1.24,.44-1.98,.32-.75-.12-1.38-.47-1.91-1.04-1.2-1.39-2.59-2.41-4.18-3.06s-3.41-.97-5.47-.97c-2.64,0-4.75,.54-6.34,1.62-1.58,1.08-2.38,2.44-2.38,4.07,0,1.1,.3,2.06,.9,2.88,.6,.82,1.63,1.54,3.1,2.16,1.46,.62,3.52,1.15,6.16,1.58,3.6,.58,6.44,1.43,8.53,2.56s3.58,2.45,4.46,3.96c.89,1.51,1.33,3.16,1.33,4.93,0,2.26-.66,4.24-1.98,5.94-1.32,1.71-3.14,3.04-5.47,4s-5,1.44-8.03,1.44v-.02Z"/><path class="cls-1" d="M411.78,141.81c-3.84,0-7.27-.86-10.3-2.59-3.02-1.73-5.4-4.1-7.13-7.13-1.73-3.02-2.59-6.46-2.59-10.3s.86-7.34,2.59-10.37c1.73-3.02,4.1-5.4,7.13-7.13,3.02-1.73,6.46-2.59,10.3-2.59s7.26,.86,10.26,2.59,5.36,4.1,7.09,7.13c1.73,3.02,2.62,6.48,2.66,10.37,0,3.84-.88,7.27-2.63,10.3-1.75,3.02-4.13,5.4-7.13,7.13s-6.42,2.59-10.26,2.59h.01Zm0-5.04c2.78,0,5.28-.65,7.49-1.94,2.21-1.3,3.93-3.07,5.18-5.33,1.25-2.25,1.87-4.82,1.87-7.7s-.62-5.46-1.87-7.74-2.98-4.07-5.18-5.36c-2.21-1.3-4.71-1.94-7.49-1.94s-5.28,.65-7.49,1.94c-2.21,1.3-3.95,3.08-5.22,5.36s-1.91,4.86-1.91,7.74,.64,5.45,1.91,7.7c1.27,2.26,3.01,4.03,5.22,5.33s4.7,1.94,7.49,1.94Z"/><path class="cls-1" d="M445.33,141.45c-.86,0-1.54-.24-2.02-.72-.48-.48-.72-1.15-.72-2.02v-33.91c0-.86,.24-1.54,.72-2.02,.48-.48,1.15-.72,2.02-.72s1.54,.24,2.02,.72c.48,.48,.72,1.15,.72,2.02v33.91c0,.86-.24,1.54-.72,2.02-.48,.48-1.15,.72-2.02,.72Zm-.43-24.26c.14-2.98,.92-5.64,2.34-7.99,1.42-2.35,3.26-4.2,5.54-5.54s4.81-2.02,7.6-2.02c2.21,0,3.91,.31,5.11,.94,1.2,.62,1.66,1.54,1.37,2.74-.19,.72-.52,1.2-.97,1.44-.46,.24-1.01,.34-1.66,.29s-1.38-.1-2.2-.14c-2.69-.24-5.08,.04-7.16,.83s-3.74,2-4.97,3.64c-1.22,1.63-1.84,3.58-1.84,5.83h-3.17v-.02Z"/></g><g><path class="cls-2" d="M93.87,62.16c.21-1.38,.36-3.03,.34-4.88-.02-1.6-.16-3.03-.34-4.27,3.39-2.45,6.78-4.91,10.17-7.36,.54-.52,1.55-1.65,1.94-3.39,.28-1.26,.11-2.28-.06-3.31-.29-1.69-.83-2.8-1.63-4.42-1.21-2.47-2.17-3.41-3.03-3.92-.06-.04-.11-.07-.12-.07-1.3-.71-2.56-.68-3.52-.6-1.45,.12-5.77,.66-11.59,1.72-.67-1.11-1.56-2.38-2.72-3.69-1.24-1.41-2.48-2.49-3.54-3.31"/><path class="cls-2" d="M86,31.63c-.73-1.09-1.62-2.28-2.7-3.51-1.25-1.41-2.49-2.56-3.6-3.48,.85-3.98,1.71-7.96,2.56-11.93,.12-.71,.25-2.17-.45-3.68,0,0-.03-.06-.06-.13-.46-.92-1.32-1.95-3.65-3.3-1.53-.89-2.58-1.5-4.19-1.86-.98-.22-1.95-.44-3.17-.19-1.68,.34-2.81,1.35-3.33,1.89-2.5,3.56-5,7.12-7.49,10.68-1.14-.24-2.47-.43-3.94-.52-1.76-.1-3.33,0-4.66,.15"/><path class="cls-2" d="M59.89,15.96c-1.21-.22-2.63-.4-4.21-.45-1.65-.05-3.13,.05-4.4,.21-3.26-5.52-5.88-9.43-6.79-10.65-.74-.99-1.58-1.83-2.81-2.28,0,0-.06-.02-.13-.05-.95-.32-2.26-.41-4.82,.34-1.69,.49-2.84,.83-4.23,1.76-.84,.56-1.68,1.12-2.38,2.2-.96,1.48-1.07,3.02-1.08,3.78,.62,4.07,1.23,8.15,1.85,12.22-1.06,.87-2.19,1.9-3.35,3.1-1.21,1.26-2.25,2.49-3.12,3.64"/><path class="cls-2" d="M30.92,23.1c-1.02,.79-2.14,1.75-3.29,2.92-1.32,1.34-2.38,2.66-3.23,3.85-3.85-.77-7.69-1.54-11.54-2.31-.68-.1-2.1-.2-3.53,.57,0,0-.06,.03-.12,.07-.87,.51-1.84,1.44-3.06,3.89-.81,1.62-1.36,2.73-1.66,4.41-.18,1.03-.36,2.04-.09,3.31,.38,1.74,1.38,2.88,1.92,3.41,3.49,2.49,6.99,4.98,10.48,7.47-.19,1.2-.34,2.58-.38,4.11-.04,1.84,.09,3.47,.28,4.84"/><path class="cls-2" d="M16.8,50.7c-.17,1.34-.29,2.86-.31,4.52-.02,1.66,.06,3.18,.2,4.53-5.12,3.43-8.74,6.19-9.89,7.16-.96,.82-1.72,1.72-2.13,2.98,0,0-.02,.07-.04,.14-.28,1-.34,2.36,.44,5.01,.52,1.75,.87,2.94,1.79,4.36,.56,.87,1.11,1.72,2.17,2.42,1.44,.96,2.93,1.05,3.66,1.03,3.93-.81,7.85-1.62,11.78-2.42,.67,1.1,1.6,2.39,2.84,3.71,1.04,1.1,2.07,1.97,2.97,2.63"/><path class="cls-2" d="M24.25,80.53c.79,1.08,1.73,2.24,2.84,3.43,1.11,1.19,2.2,2.21,3.21,3.06-1.31,6.19-2,10.8-2.15,12.34-.12,1.29-.06,2.48,.52,3.67,0,0,.03,.06,.07,.13,.48,.91,1.36,1.92,3.71,3.23,1.55,.86,2.61,1.45,4.22,1.78,.99,.2,1.95,.4,3.17,.12,1.68-.38,2.78-1.41,3.29-1.96,2.23-3.46,4.47-6.91,6.7-10.37,1.22,.28,2.75,.52,4.52,.54,1.49,.02,2.8-.13,3.89-.32"/></g><g><path class="cls-2" d="M14.83,102.22c-.21,1.34-.37,2.94-.35,4.74,.02,1.55,.16,2.95,.35,4.15-3.41,2.38-6.82,4.77-10.23,7.15-.54,.51-1.56,1.61-1.95,3.29-.29,1.23-.11,2.21,.06,3.21,.29,1.64,.84,2.72,1.64,4.3,1.22,2.4,2.18,3.31,3.05,3.81,.06,.04,.12,.06,.12,.07,1.31,.69,2.57,.67,3.54,.59,1.46-.12,5.8-.64,11.65-1.68,.67,1.07,1.57,2.32,2.73,3.59,1.25,1.37,2.49,2.42,3.56,3.21"/><path class="cls-2" d="M22.74,131.89c.73,1.06,1.63,2.22,2.72,3.41,1.26,1.37,2.5,2.49,3.62,3.38-.86,3.87-1.72,7.73-2.58,11.6-.12,.69-.25,2.11,.45,3.58,0,0,.03,.06,.06,.13,.46,.9,1.33,1.9,3.67,3.21,1.54,.87,2.59,1.46,4.21,1.81,.99,.21,1.96,.43,3.19,.18,1.69-.33,2.82-1.31,3.35-1.84,2.51-3.46,5.02-6.92,7.54-10.37,1.15,.23,2.48,.42,3.96,.5,1.77,.1,3.35,.01,4.69-.14"/><path class="cls-2" d="M49,147.12c1.22,.22,2.64,.39,4.23,.43,1.66,.05,3.15-.05,4.42-.2,3.28,5.37,5.92,9.17,6.83,10.35,.75,.96,1.59,1.78,2.83,2.22,0,0,.07,.02,.13,.04,.96,.31,2.27,.4,4.85-.33,1.7-.48,2.86-.81,4.25-1.71,.85-.55,1.69-1.09,2.39-2.13,.97-1.44,1.08-2.93,1.08-3.68-.62-3.96-1.24-7.92-1.86-11.88,1.06-.85,2.2-1.85,3.37-3.02,1.22-1.22,2.26-2.42,3.14-3.53"/><path class="cls-2" d="M78.14,140.17c1.03-.77,2.15-1.7,3.3-2.84,1.33-1.31,2.4-2.59,3.25-3.74,3.87,.75,7.74,1.5,11.6,2.24,.69,.1,2.11,.19,3.55-.56,0,0,.06-.03,.12-.07,.88-.49,1.85-1.4,3.08-3.78,.81-1.58,1.37-2.65,1.67-4.29,.18-1,.36-1.98,.09-3.21-.38-1.69-1.39-2.8-1.93-3.31-3.51-2.42-7.03-4.84-10.54-7.26,.19-1.16,.34-2.51,.38-4,.04-1.78-.09-3.37-.28-4.71"/><path class="cls-2" d="M92.34,113.36c.17-1.31,.29-2.78,.31-4.39,.02-1.62-.06-3.09-.2-4.4,5.15-3.33,8.79-6.01,9.94-6.96,.97-.8,1.73-1.67,2.14-2.9,0,0,.02-.07,.04-.14,.28-.97,.34-2.3-.44-4.87-.52-1.7-.87-2.86-1.8-4.24-.57-.84-1.12-1.67-2.18-2.35-1.45-.94-2.94-1.02-3.68-1-3.95,.78-7.9,1.57-11.84,2.35-.68-1.07-1.6-2.33-2.85-3.6-1.05-1.07-2.08-1.91-2.98-2.56"/><path class="cls-2" d="M84.77,84.3c-.79-1.05-1.72-2.19-2.83-3.36s-2.19-2.17-3.2-3.01c1.37-6,2.12-10.48,2.28-11.97,.14-1.25,.08-2.41-.48-3.58,0,0-.03-.06-.06-.13-.47-.89-1.35-1.88-3.7-3.17-1.55-.85-2.61-1.43-4.23-1.77-.99-.21-1.96-.41-3.19-.15-1.69,.35-2.81,1.34-3.33,1.87-2.28,3.34-4.56,6.67-6.84,10.01-1.22-.29-2.76-.54-4.55-.57-1.49-.03-2.81,.09-3.91,.27"/></g><path class="cls-3" d="M52.13,81.53c-13.69-2.13-23.77-13.46-24.16-26.39-.34-11.33,6.82-21.96,17.03-25.75,13.08-4.86,29.4,2.16,35.86,17.24"/><path class="cls-3" d="M52.31,81.52c10.21-.88,20,3.73,25.31,12.01,6.59,10.29,3.07,21.27,2.61,22.64-.36,1.05-4.43,12.44-15.86,16.39-11.01,3.8-24.27-.9-32.05-11.96"/></svg>