<svg width="134" height="145" viewBox="0 0 134 145" fill="none" xmlns="http://www.w3.org/2000/svg">
<g clip-path="url(#clip0_130_26)">
<path d="M2.86674 69.9209H14.9279C14.9279 69.9209 18.7816 70.4188 18.9083 74.5324C19.0349 78.646 18.9083 122.268 18.9083 122.268C18.9083 122.268 18.1615 125.382 14.6812 125.382H1.62329" stroke="white" stroke-width="5" stroke-linecap="round" stroke-linejoin="round"/>
<path d="M7.55167 114.747C8.07883 114.747 8.50618 114.282 8.50618 113.709C8.50618 113.136 8.07883 112.671 7.55167 112.671C7.02451 112.671 6.59717 113.136 6.59717 113.709C6.59717 114.282 7.02451 114.747 7.55167 114.747Z" stroke="white" stroke-width="5" stroke-linecap="round" stroke-linejoin="round"/>
<path d="M27.4858 78.5223H45.6376L65.1595 91.234C65.1595 91.234 83.0646 90.3618 86.545 92.6041" stroke="white" stroke-width="5" stroke-linecap="round" stroke-linejoin="round"/>
<path d="M54.4684 99.4611C54.4684 99.4611 75.607 105.443 91.0252 99.7117C106.443 93.9807 116.391 87.4979 116.391 87.4979C116.391 87.4979 127.582 82.2616 125.715 96.0993C125.715 96.0993 97.2425 119.157 80.9542 121.028C64.666 122.899 39.4268 109.934 39.4268 109.934C39.4268 109.934 34.0796 107.441 27.1189 108.437" stroke="white" stroke-width="5" stroke-linecap="round" stroke-linejoin="round"/>
<path d="M88.1618 53.2616C88.1618 53.2616 93.5511 60.2423 98.5217 59.2432C103.496 58.2474 105.651 48.5232 105.651 48.5232C105.015 47.817 103.992 46.8211 102.522 45.9262C101.44 45.2688 100.901 44.9401 100.262 44.8652C97.9633 44.5984 97.3594 47.3581 94.129 48.4386C91.4116 49.3466 89.7429 48.1001 88.5838 49.3335C87.6521 50.3229 87.8696 52.0412 88.1618 53.2583V53.2616Z" stroke="#77EA97" stroke-width="5" stroke-linecap="round" stroke-linejoin="round"/>
<path d="M46.7155 27.7536C46.7155 27.7536 57.4098 -3.9899 91.8921 2.90944L91.9765 13.4635C91.9765 13.4635 81.6165 16.6202 85.0969 26.2598C88.5773 35.8993 92.7232 32.9899 92.7232 32.9899C92.7232 32.9899 97.2814 22.937 101.012 24.6814C104.742 26.4258 104.742 32.16 104.742 32.16C106.586 32.2902 119.092 33.1038 120.141 29.4849C120.427 28.4923 119.621 26.9595 118.008 23.8906C116.777 21.5572 115.583 19.738 114.732 18.5306C113.125 16.5096 111.089 14.2478 108.557 11.9664C105.606 9.31085 102.736 7.30939 100.268 5.81888" stroke="#77EA97" stroke-width="5" stroke-linecap="round" stroke-linejoin="round"/>
<path d="M121.154 37.8064C121.154 37.8064 121.982 76.9439 83.5224 78.2717C83.5224 78.2717 74.6526 77.4418 75.7305 64.7269C75.7305 64.7269 81.0354 56.5843 72.4157 49.6036C72.4157 49.6036 77.8051 32.902 70.1788 31.0731C62.5525 29.2441 64.3771 40.8786 64.3771 40.8786C64.3771 40.8786 57.5787 52.845 54.3483 43.1209C51.1179 33.3967 45.313 35.9742 45.313 35.9742C45.313 35.9742 40.4236 64.0597 70.5943 76.69" stroke="#77EA97" stroke-width="5" stroke-linecap="round" stroke-linejoin="round"/>
</g>
<defs>
<clipPath id="clip0_130_26">
<rect width="133.553" height="145" fill="white"/>
</clipPath>
</defs>
</svg>
